<ttFont>
          <CharString index="0">
            -117 -74.02000427246094 -113.99000549316406 -108.00999450683594 -94 hhcurveto
            -63 -39 28.020004272460938 86 47.97999572753906 10 94 13 94 hvcurveto
            11 -25 callgsubr
            53 395 14.990005493164062 112 rrcurveto
            -274 hlineto
            -17 -110.02000427246094 -54 -394 -12 1 callsubr
            -15 -113.00999450683594 -14 -111 1 -69 rrcurveto
            -200.99000549316406 1 109 -72 161.02000427246094 hhcurveto
            158 135.99000549316406 103.99000549316406 121 87 94 callgsubr
            -204.97999572753906 rlineto
            return
          </CharString>
          <CharString index="1">
            rmoveto
            -378.99000549316406 -228 -336 -363 -88 callsubr
            -51 callgsubr
            3 124.99000549316406 -196.97000122070312 275 hhcurveto
            379 223 336.9700012207031 363.00999450683594 -3 hvcurveto
            -40 callgsubr
            -98 callgsubr
            -119.00999450683594 -53 callsubr
            -276 hhcurveto
            -162 -991 81 callsubr
            -55 92 181 -1 hvcurveto
            236.99000549316406 93 callsubr
            301.02000427246094 195 hhcurveto
            -45 callsubr
            49 -90 -186 1 hvcurveto
            25 callsubr
            -293 -197 hhcurveto
            endchar
          </CharString>
          <CharString index="2">
            rmoveto
            47 callsubr
            -63 -97.02000427246094 -52 callgsubr
            -60 callsubr
            hhcurveto
            -94 callgsubr
            161 61 callgsubr
            122.97999572753906 112 -75 callgsubr
            hvcurveto
            -27 callgsubr
            -315.97999572753906 rlineto
            -143.02000427246094 -28 -60 -92 -157 hhcurveto
            -112 -122 49 22 -43 callgsubr
            hvcurveto
            -51 -210 rlineto
            -18 40.97999572753906 136 -22 93 hhcurveto
            240 289 -34 callsubr
            354 51 hvcurveto
            167.02000427246094 1217 -152 -39 rlineto
            -217 -631 rmoveto
            -125.00999450683594 -57 -114 -179 -121.02000427246094 hhcurveto
            -93 callgsubr
            41 39.02000427246094 -4 75 callgsubr
            34 hvcurveto
            -66 -480.99000549316406 rlineto
            endchar
          </CharString>
          <CharString index="3">
            22 rlineto
            21.009994506835938 -64 -113.99000549316406 35 -187 hhcurveto
            -434.00999450683594 -344.99000549316406 -375.00999450683594 -554 6 hvcurveto
            -304.99000549316406 -82 callsubr
            144.02000427246094 -327.97999572753906 405 hhcurveto
            171.99000549316406 146 44.99000549316406 29.990005493164062 104 hvcurveto
            55 16.020004272460938 35 7.9900054931640625 32.99000549316406 4.0200042724609375 94 703 rcurveline
            -501 hlineto
            -26.990005493164062 -220 rlineto
            return
          </CharString>
          <CharString index="4">
            rmoveto
            47 callsubr
            -63.02000427246094 -97 64 callsubr
            -32 callsubr
            91.00999450683594 46 callsubr
            159.99000549316406 117 120.97000122070312 113 65 94 callgsubr
            -217.99000549316406 rlineto
            245.99000549316406 -21 callsubr
            -504.00999450683594 -937 rmoveto
            -74 -42 81 175.99000549316406 239 109 304 246 41 40 -4 -10.009994506835938 35 hvcurveto
            -68 -479.99000549316406 rlineto
            -126 -55 -111 -180 -121 hhcurveto
            endchar
          </CharString>
          <CharString index="5">
            rmoveto
            118 callsubr
            -20 callgsubr
            -743.9900054931641 -1531 300.99000549316406 1 148 106 callgsubr
            560.9900054931641 hlineto
            48 -341.99000549316406 rlineto
            -523 537.9900054931641 rmoveto
            294.99000549316406 679.0200042724609 47 121 9.990005493164062 -118 96.02000427246094 -682 rlineto
            -448 hlineto
            endchar
          </CharString>
          <CharString index="6">
            rmoveto
            -91 callgsubr
            945.9900054931641 hlineto
            25.009994506835938 -2 callsubr
            -666.0099945068359 -13 12 callgsubr
            474.00999450683594 431.99000549316406 -12 24 221 -427.99000549316406 -6 57 432 572.0099945068359 -5 22 216 rlineto
            -841.0099945068359 hlineto
            endchar
          </CharString>
          <CharString index="7">
            258.99000549316406 954 179 callgsubr
            272.02000427246094 hlineto
            -82 callsubr
            63 463.00999450683594 66.99000549316406 489 vhcurveto
            203 hlineto
            20.009994506835938 186 rlineto
            -200 hlineto
            -98 callsubr
            130 hlineto
            return
          </CharString>
          <CharString index="8">
            -397 -523 5 hvcurveto
            -314 3 123.99000549316406 -327.97999572753906 396 hhcurveto
            241 155 113 callsubr
            31 40 hvcurveto
            -43 callgsubr
            208 rlineto
            -35 -45 -134 -64 -154 hhcurveto
            -214 -75 callsubr
            169 261 -38 callsubr
            295 -3 116 382.02000427246094 344 hhcurveto
            157 82 -59 -27.009994506835938 36 hvcurveto
            86 250 -54 16.020004272460938 rlineto
            22 -3 callsubr
            -83 30 -142 hhcurveto
            endchar
          </CharString>
          <CharString index="9">
            24 155 -52 callgsubr
            130 59 64.99000549316406 82.99000549316406 1 rlinecurve
            63 1 44.02000427246094 -62 callgsubr
            18 -8 callsubr
            56 37 callsubr
            -256.97999572753906 -163 -178 -258 -36 hvcurveto
            -16 -99.99000549316406 rlineto
            -122.02000427246094 hlineto
            -34 -186 rlineto
            return
          </CharString>
          <CharString index="10">
            rmoveto
            -13 -92 -4 -63 -13 vvcurveto
            -137.02000427246094 87 -59.97999572753906 122 154.99000549316406 153 88.97999572753906 62.02000427246094 64 vhcurveto
            -39 139 rlineto
            -37 60 callgsubr
            -103 -53 -48 hhcurveto
            -55 -19 callsubr
            44 41.99000549316406 36 6 34 -13 callgsubr
            -41 callsubr
            hvcurveto
            73.02000427246094 548 rlineto
            244 hlineto
            23 186 rlineto
            -242 hlineto
            37 278 rlineto
            -216 hlineto
            -80 -278 rlineto
            -105 hlineto
            -39 -186 rlineto
            100 hlineto
            8 callsubr
            -607 rlineto
            return
          </CharString>
          <CharString index="11">
            rmoveto
            -80 -589.9900054931641 rlineto
            271 hlineto
            80 589.9900054931641 597.0099945068359 940.0099945068359 rlineto
            -303 hlineto
            -348.02000427246094 -608.0099945068359 -47.99000549316406 -105 -28 105 -195 608.0099945068359 rlineto
            -292 hlineto
            346.00999450683594 -940.0099945068359 rlineto
            endchar
          </CharString>
          <CharString index="12">
            -91 callgsubr
            123 hlineto
            59 87 -5 -4 57 hvcurveto
            -4.0099945068359375 43.99000549316406 52 -98 callgsubr
            33.02000427246094 hhcurveto
            522 -6 293.99000549316406 436.97999572753906 -5 512 rrcurveto
            return
          </CharString>
          <CharString index="13">
            rmoveto
            118 callgsubr
            205.99000549316406 1530 rlineto
            -275.97999572753906 hlineto
            return
          </CharString>
          <CharString index="14">
            -69 callsubr
            40 callsubr
            80 95 3 58 callgsubr
            86 callgsubr
            -41 -355.99000549316406 -92 callsubr
            endchar
          </CharString>
          <CharString index="15">
            rmoveto
            11 callgsubr
            276 -70 callgsubr
            return
          </CharString>
          <CharString index="16">
            rmoveto
            -2 187 -53.99000549316406 169 -107.00999450683594 -36 callgsubr
            135 217 rcurveline
            -89 9 callgsubr
            -124.99000549316406 8 callgsubr
            rlineto
            9 callgsubr
            -74.02000427246094 -92 28.020004272460938 -109 296 callsubr
            -526.0099945068359 5.0200042724609375 hvcurveto
            -82 callsubr
            -181.99000549316406 51 -164 103.02000427246094 -112 -144.02000427246094 -220 rcurveline
            89.00999450683594 -48.99000549316406 131 201.97000122070312 rlineto
            -53.99000549316406 76.99000549316406 97.00999450683594 -30.979995727539062 116 hhcurveto
            47 callgsubr
            428.9700012207031 521.0099945068359 -4 hvcurveto
            -552 401 rmoveto
            71 203 callsubr
            -19 60 callgsubr
            43 hvcurveto
            -547 -906.0200042724609 -21.020004272460938 64 -12 85.02000427246094 -53 callgsubr
            105.99000549316406 rlinecurve
            343 -3 161 370.00999450683594 253 hhcurveto
            -144 -1142 rmoveto
            -76 -59 22 51.02000427246094 -44 hvcurveto
            552.0200042724609 909.9900054931641 23.990005493164062 -65 13 -87.97999572753906 1 -114.02000427246094 rlinecurve
            -61 callsubr
            endchar
          </CharString>
          <CharString index="17">
            rmoveto
            -32 callsubr
            91.00999450683594 46 callsubr
            159.99000549316406 117 120.97000122070312 113 65 94 callgsubr
            -217.99000549316406 rlineto
            245.99000549316406 -21 callsubr
            47 callsubr
            -63.02000427246094 -97 64 callsubr
            -267 -976 rmoveto
            -74 -42 81 175.99000549316406 239 109 304 246 41 40 -4 -10.009994506835938 35 hvcurveto
            -68 -479.99000549316406 rlineto
            -126 -55 -111 -180 -121 hhcurveto
            endchar
          </CharString>
          <CharString index="18">
            6 -43 callgsubr
            -39 100 callsubr
            -35 hhcurveto
            -94 callgsubr
            166 122 129.97999572753906 116 64.99000549316406 hvcurveto
            -15 -229.99000549316406 rlineto
            247 hlineto
            return
          </CharString>
          <CharString index="19">
            -97 callgsubr
            hvcurveto
            return
          </CharString>
          <CharString index="20">
            -148.99000549316406 -140 162 callsubr
            -126 -99 hvcurveto
            157 -20 -85 60 -136 hhcurveto
            -151 -140.99000549316406 -94 -129 -98.02000427246094 hvcurveto
            17.020004272460938 207 rlineto
            293 callgsubr
            230 callgsubr
            98 715 rlineto
            61 callgsubr
            78 122 60 callsubr
            87 hhcurveto
            59 36 -67 callgsubr
            -22 -165 -29 -191 -21.009994506835938 -154 rrcurveto
            276 225 callsubr
            13 93 12 83 7 64 rrcurveto
            189 callgsubr
            75.97999572753906 104.02000427246094 75.97999572753906 160 callgsubr
            hhcurveto
            59 36 -19.990005493164062 -90.00999450683594 -2 23 callsubr
            -23 -165 -28 -191 -21.020004272460938 -154 rrcurveto
            276.00999450683594 hlineto
            21 -72 callsubr
            return
          </CharString>
          <CharString index="21">
            -61 callgsubr
            44 39 -7 -11 32 hvcurveto
            -64 -469 rlineto
            -125.00999450683594 -55 -117 -186 -123 hhcurveto
            endchar
          </CharString>
          <CharString index="22">
            rmoveto
            27 callgsubr
            -95 callsubr
            -42 callsubr
            hhcurveto
            1081 -1216 rmoveto
            hintmask 01101000
            761 1113.990005493164 -24 86.02000427246094 rlineto
            -937 hlineto
            -34 -226.02000427246094 639 12 -113.99000549316406 -112.99000549316406 -777 -1114.009994506836 28 210 callsubr
            1001.9799957275391 hlineto
            37 230.99000549316406 -685 -11 rlineto
            hintmask 10011000
            104 110 rlineto
            -1267 -141 14 callgsubr
          </CharString>
          <CharString index="23">
            rmoveto
            27.970001220703125 210 callsubr
            1002 hlineto
            37 230.99000549316406 -685.0200042724609 -11 104.02000427246094 110 761 1113.990005493164 -24 86.02000427246094 rlineto
            -937 hlineto
            -34 -226.02000427246094 639 12 -113.99000549316406 -112.99000549316406 -776.9900054931641 -1114.009994506836 rlineto
            endchar
          </CharString>
          <CharString index="24">
            rmoveto
            -2 164.99000549316406 60 callgsubr
            136 -94 83 117 184 rcurveline
            -89 49 -112.99000549316406 -178 rlineto
            21.009994506835938 -49 -58 11.990005493164062 124 callgsubr
            hhcurveto
            -378.99000549316406 -228 -336 -362.99000549316406 97 callgsubr
            -154 39 -129 83 215 callsubr
            -115 -174 rcurveline
            88.99000549316406 -48.99000549316406 107 162.97999572753906 rlineto
            -29 54 165 callsubr
            -95 callgsubr
            78 hhcurveto
            379 223 337 363 -3 hvcurveto
            -439.99000549316406 291.97999572753906 rmoveto
            35 29 136 callsubr
            -19 22 hvcurveto
            -359 -623 rlineto
            -7 33.02000427246094 -3 164 callsubr
            43 vvcurveto
            237 93 callsubr
            301 195 hhcurveto
            -120.02000427246094 -810.9900054931641 rmoveto
            -43.99000549316406 -35 15 31 -8 callgsubr
            hvcurveto
            368 634 rlineto
            10 -39 5.0200042724609375 -48 -58 vvcurveto
            25 callsubr
            -292.99000549316406 -197 hhcurveto
            endchar
          </CharString>
          <CharString index="25">
            1.9900054931640625 return
          </CharString>
          <CharString index="26">
            -35 callgsubr
            -25 callsubr
            -28 callsubr
            -13 callsubr
            19 vhcurveto
            return
          </CharString>
          <CharString index="27">
            -70 callsubr
            -265 hlineto
            -110 -906.0200042724609 -16 -253.99000549316406 -71 233 -398.00999450683594 927 rlineto
            -257 hlineto
            return
          </CharString>
          <CharString index="28">
            rmoveto
            -72 -87 callgsubr
            67 callsubr
            -368 -149.02000427246094 -358.99000549316406 -333.99000549316406 -6 rrcurveto
            return
          </CharString>
          <CharString index="29">
            30 callgsubr
            hstem
            76.97999572753906 278.99000549316406 441.02000427246094 281.97999572753906 vstem
            return
          </CharString>
          <CharString index="30">
            216.49000549316406 461.5 212 426.5 213.5 return
          </CharString>
          <CharString index="31">
            rmoveto
            -333.99000549316406 -97 callgsubr
            172 -275.97999572753906 347.00999450683594 hhcurveto
            return
          </CharString>
          <CharString index="32">
            -90.00999450683594 return
          </CharString>
          <CharString index="33">
            -1.9900054931640625 return
          </CharString>
          <CharString index="34">
            rmoveto
            -91 callgsubr
            808 hlineto
            88 callsubr
            228.99000549316406 -534 -19 callsubr
            176 1309 rlineto
            return
          </CharString>
          <CharString index="35">
            145 30 196.02000427246094 23 169.99000549316406 rrcurveto
            23 160 17 133 54 vvcurveto
            return
          </CharString>
          <CharString index="36">
            -401 -341.02000427246094 -245 return
          </CharString>
          <CharString index="37">
            rmoveto
            -91 callgsubr
            262 hlineto
            120 920.9900054931641 12 287 76 -254 402 -954 296 callgsubr
            205.99000549316406 1530 rlineto
            return
          </CharString>
          <CharString index="38">
            rmoveto
            -88 callgsubr
            111 return
          </CharString>
          <CharString index="39">
            -88 -510.99000549316406 -2 callgsubr
            316.00999450683594 27 callsubr
            return
          </CharString>
          <CharString index="40">
            94 callsubr
            120.02000427246094 46.02000427246094 240.99000549316406 226.97999572753906 36 71 callsubr
            return
          </CharString>
          <CharString index="41">
            40 -6 30 -66 callgsubr
            return
          </CharString>
          <CharString index="42">
            rmoveto
            -166 -122 -127 -113.00999450683594 -65 hvcurveto
            -4 callsubr
            146 70 573.9900054931641 rlineto
            -263.99000549316406 hlineto
            -222 -1643.990005493164 163 callgsubr
            32.99000549316406 106 callsubr
            12 callgsubr
            99.99000549316406 114 callsubr
            80.02000427246094 hhcurveto
            459 216 398.99000549316406 -31 callgsubr
            245 219 callgsubr
            187 -232 hvcurveto
            -325 -995 rmoveto
            -42 -39 4 10 -36 hvcurveto
            61 464.02000427246094 rlineto
            122 51 121 197 129 hhcurveto
            73.99000549316406 41 -81 -175 -239 -114 -302 -246 hvcurveto
            endchar
          </CharString>
          <CharString index="43">
            325 232 152.97999572753906 303 -38 callsubr
            -2 199 -158 125.99000549316406 -131.99000549316406 227 callsubr
            4 105 50.02000427246094 124 hhcurveto
            88 108 callgsubr
            -30 -56 55 hvcurveto
            87 215.99000549316406 rlineto
            37 -51 -120.02000427246094 48 -181 hhcurveto
            -296 -205.99000549316406 -164 -269 97 callgsubr
            -204 146 -135 83 callsubr
            -97 155.02000427246094 -109 9 callgsubr
            -71 -1 -100 rrcurveto
            99 callgsubr
            -53 callgsubr
            -105 -64 -155 hhcurveto
            return
          </CharString>
          <CharString index="44">
            -94 -95 callgsubr
            -53 callsubr
            799.9799957275391 176 return
          </CharString>
          <CharString index="45">
            130 callsubr
            115 callgsubr
            rmoveto
            -214 -1635.979995727539 rlineto
            272 hlineto
            214.02000427246094 115 callgsubr
            284 callgsubr
            754.0099945068359 -723.9900054931641 rmoveto
            46 48 callgsubr
            31 71 6.9900054931640625 85.00999450683594 rrcurveto
            151 callgsubr
            -29 -75 callsubr
            -40 -69 -51.02000427246094 -70 -60 callsubr
            -123 -81 -90.99000549316406 101 callgsubr
            -64 rrcurveto
            2 hlineto
            -2 -1 301 -630 rlineto
            318.00999450683594 hlineto
            -344 610 93 48 128 246 callsubr
            82 143.99000549316406 rlinecurve
            return
          </CharString>
          <CharString index="46">
            -356 3 -161 -360 -252.99000549316406 hhcurveto
            return
          </CharString>
          <CharString index="47">
            -76.99000549316406 return
          </CharString>
          <CharString index="48">
            rmoveto
            -88 -224 rlineto
            -37 45.02000427246094 175 -56.970001220703125 161 hhcurveto
            325 232 152.97999572753906 303 -38 callsubr
            -2 199 -158 125.99000549316406 return
          </CharString>
          <CharString index="49">
            -227 -74 callgsubr
            801.9900054931641 172 return
          </CharString>
          <CharString index="50">
            327 hintmask 10110000
            883 954 rmoveto
            251 callgsubr
            12 callgsubr
            116 callgsubr
            4 callgsubr
            33 callgsubr
            44.02000427246094 -62 callgsubr
            18 -8 callsubr
            56 37 callsubr
            -257 -163 -178 -258 -35.99000549316406 hvcurveto
            114 callgsubr
            -99.99000549316406 rlineto
            -122 hlineto
            -34 -186 rlineto
            130 hlineto
            return
          </CharString>
          <CharString index="51">
            202.99000549316406 return
          </CharString>
          <CharString index="52">
            rmoveto
            -376.02000427246094 -1037 -63 -219 -19 219 -87.99000549316406 1037 rlineto
            -268 hlineto
            107 callsubr
            -278.02000427246094 -300.99000549316406 -758.9900054931641 -64 -219 -8 callgsubr
            219 -99.99000549316406 1037 rlineto
            -277.02000427246094 hlineto
            208.02000427246094 -1534.990005493164 rlineto
            290 hlineto
            264.99000549316406 702.9900054931641 58 168.97999572753906 16 -168.97999572753906 76 -702.9900054931641 rlineto
            308 hlineto
            612 1534.990005493164 rlineto
            -281.99000549316406 hlineto
            endchar
          </CharString>
          <CharString index="53">
            rmoveto
            -177.99000549316406 -1324.990005493164 rlineto
            279 hlineto
            3 callsubr
            1324.990005493164 386 -11 30 216 rlineto
            -1055 hlineto
            105 callgsubr
            rlineto
            return
          </CharString>
          <CharString index="54">
            195.99000549316406 return
          </CharString>
          <CharString index="55">
            67.00999450683594 return
          </CharString>
          <CharString index="56">
            1664 82 callgsubr
            115 242 callsubr
            197 callsubr
            vstem
            115 1806.990005493164 rmoveto
            264 callsubr
            72 hhcurveto
            157 callsubr
            2 158 callsubr
            -53.99000549316406 29 callgsubr
            -89 -72 -77 284 callsubr
            445.99000549316406 hmoveto
            -74 -1 60 -69 72 hhcurveto
            -28 callgsubr
            return
          </CharString>
          <CharString index="57">
            4 -31 callgsubr
            -53 callsubr
            800.0099945068359 193 return
          </CharString>
          <CharString index="58">
            -376 -74 callgsubr
            777.0000152587891 196.99000549316406 hstem
            123 callgsubr
            258.99000549316406 104.99998474121094 266.00999450683594 vstem
            return
          </CharString>
          <CharString index="59">
            275.99000549316406 hlineto
            return
          </CharString>
          <CharString index="60">
            96.00999450683594 return
          </CharString>
          <CharString index="61">
            -954 rlineto
            272 hlineto
            -82 callsubr
            63 463.00999450683594 -52 callsubr
            489 vhcurveto
            203 209 callgsubr
            186 rlineto
            8 callgsubr
            hlineto
            return
          </CharString>
          <CharString index="62">
            107.99000549316406 return
          </CharString>
          <CharString index="63">
            -94 callsubr
            639 hmoveto
            -56 -435.02000427246094 -58.99000549316406 -617.9900054931641 -83 -391 -8 callgsubr
            13 callsubr
            -27 callsubr
            -141 -165 -47 39 -102.99000549316406 rcurveline
            220.02000427246094 17 216.99000549316406 87 86 306.99000549316406 29 97 89.00999450683594 682 87 676 rrcurveto
            -276.99000549316406 hlineto
            endchar
          </CharString>
          <CharString index="64">
            rmoveto
            -398.99000549316406 -1530 rlineto
            274 hlineto
            243 1085.990005493164 56 302 19 -297 140 -1108.990005493164 186 callsubr
            220 callsubr
            436.97999572753906 1106.979995727539 105 284 -62 callgsubr
            -308 -69 -1079.990005493164 rlineto
            277 hlineto
            30 1530 rlineto
            -402 hlineto
            -391 -1056.009994506836 -48.99000549316406 -197 -11 197 101 callgsubr
            1056.009994506836 rlineto
            -385 hlineto
            endchar
          </CharString>
          <CharString index="65">
            368 -98 callgsubr
            -161 251 -414.99000549316406 return
          </CharString>
          <CharString index="66">
            68.02000427246094 return
          </CharString>
          <CharString index="67">
            115 167.02000427246094 vvcurveto
            100.99000549316406 return
          </CharString>
          <CharString index="68">
            -250 -95 callgsubr
            218.99000549316406 1127.990005493164 214.99000549316406 hstem
            175.97999572753906 268 220 284.02000427246094 vstem
            return
          </CharString>
          <CharString index="69">
            -74 callsubr
            hvcurveto
            return
          </CharString>
          <CharString index="70">
            -79.00999450683594 return
          </CharString>
          <CharString index="71">
            -92 callsubr
            623 hmoveto
            150 callgsubr
            -33 callsubr
            -36 -195 -179 hhcurveto
            123 callsubr
            -26 132 callgsubr
            -11.990005493164062 277 callsubr
            58 -16 71 hhcurveto
            232 -53 callsubr
            190 332.97999572753906 45 130 callgsubr
            -277 hlineto
            endchar
          </CharString>
          <CharString index="72">
            -78.00999450683594 return
          </CharString>
          <CharString index="73">
            95.99000549316406 return
          </CharString>
          <CharString index="74">
            -30.990005493164062 return
          </CharString>
          <CharString index="75">
            -459 -211 -71 callsubr
            return
          </CharString>
          <CharString index="76">
            -1220.009994506836 rmoveto
            -227 -9 34 265 -234.99000549316406 -23 -35 -251 -318 -12 -32 callgsubr
            89 468.00999450683594 639 -173.02000427246094 104 -58 -53 callgsubr
            -577.9900054931641 -888.0099945068359 9 callgsubr
            -112 rlineto
            512 hlineto
            -44 -317.9700012207031 rlineto
            240 hlineto
            40.97999572753906 317.9700012207031 rlineto
            229 hlineto
            22 199 rlineto
            endchar
          </CharString>
          <CharString index="77">
            1797 rmoveto
            -35 callsubr
            -2 64 -65 82 hhcurveto
            110 return
          </CharString>
          <CharString index="78">
            rmoveto
            117 callsubr
            132 callsubr
            39 callgsubr
            -38 callsubr
            return
          </CharString>
          <CharString index="79">
            -30 callgsubr
            -3 callsubr
            -47 callsubr
            return
          </CharString>
          <CharString index="80">
            -100.99000549316406 return
          </CharString>
          <CharString index="81">
            10 callsubr
            -92.02000427246094 hhcurveto
            -98 return
          </CharString>
          <CharString index="82">
            90.99000549316406 return
          </CharString>
          <CharString index="83">
            312.99000549316406 return
          </CharString>
          <CharString index="84">
            -107.00999450683594 -80 -83.00999450683594 -98 -6 hvcurveto
            -83 -5 59 40 callgsubr
            66 callsubr
            hhcurveto
            108.00999450683594 81 -32 callgsubr
            110.02000427246094 6 hvcurveto
            74 4 return
          </CharString>
          <CharString index="85">
            250 callsubr
            -167.02000427246094 15 callsubr
            39 callsubr
            return
          </CharString>
          <CharString index="86">
            hlineto
            159 -3 callgsubr
            -149 -39 rlineto
            return
          </CharString>
          <CharString index="87">
            -41 callgsubr
            -2 hvcurveto
            return
          </CharString>
          <CharString index="88">
            -7.9900054931640625 return
          </CharString>
          <CharString index="89">
            -27 callsubr
            -30 142 -162 hhcurveto
            -108.00999450683594 -140 -94 -34 callgsubr
            return
          </CharString>
          <CharString index="90">
            111.97999572753906 283.00999450683594 return
          </CharString>
          <CharString index="91">
            rlineto
            -179 hlineto
            -349 return
          </CharString>
          <CharString index="92">
            -30 callsubr
            74 callsubr
            150 callsubr
            return
          </CharString>
          <CharString index="93">
            -370 -95 callgsubr
            202.97999572753906 756.9900054931641 212 hstem
            2 callgsubr
            280.97999572753906 vstem
            return
          </CharString>
          <CharString index="94">
            -86.02000427246094 return
          </CharString>
          <CharString index="95">
            rmoveto
            51 -18 40.02000427246094 -75 -88 vvcurveto
            -110 124 callgsubr
            -109 -96.99000549316406 -49 211 callgsubr
            -21 113 callsubr
            200 callgsubr
            rlineto
            198 165 callsubr
            129 186 222 vvcurveto
            48 callsubr
            -43 156 -152.99000549316406 58 vhcurveto
            -131.02000427246094 -157.99000549316406 -7 -54 rlineto
            endchar
          </CharString>
          <CharString index="96">
            198 callgsubr
            37 callgsubr
            vstem
            return
          </CharString>
          <CharString index="97">
            rmoveto
            -254 hlineto
            -97 callgsubr
            -74.02000427246094 -23 -164 -11 -65.99000549316406 return
          </CharString>
          <CharString index="98">
            -93 -47 callsubr
            86 callsubr
            return
          </CharString>
          <CharString index="99">
            -15.009994506835938 return
          </CharString>
          <CharString index="100">
            238 callgsubr
            rmoveto
            213 callsubr
            -10 callgsubr
            rlineto
            return
          </CharString>
          <CharString index="101">
            1064.979995727539 rmoveto
            6 -24.990005493164062 124.99000549316406 -34 rlineto
            2 callsubr
            105 49 186.99000549316406 144.02000427246094 vvcurveto
            88 75 callgsubr
            79 -25 42 vhcurveto
            -203 -47 -59 callgsubr
            -37 rlineto
            4 callgsubr
            -30 198 callsubr
            -90.99000549316406 -75 vvcurveto
            -111 -19 -117 -22 -78 vhcurveto
            return
          </CharString>
          <CharString index="102">
            -113.99000549316406 -133 hhcurveto
            -122 -25 72 74 -19 callsubr
            hvcurveto
            -1 113 callgsubr
            261 callsubr
            return
          </CharString>
          <CharString index="103">
            26.990005493164062 return
          </CharString>
          <CharString index="104">
            -59.99000549316406 return
          </CharString>
          <CharString index="105">
            222.99000549316406 return
          </CharString>
          <CharString index="106">
            -95 callgsubr
            180.97999572753906 return
          </CharString>
          <CharString index="107">
            197 8 callgsubr
            61 callgsubr
            73 -201 -46 callgsubr
            return
          </CharString>
          <CharString index="108">
            -89.99000549316406 return
          </CharString>
          <CharString index="109">
            84.00999450683594 return
          </CharString>
          <CharString index="110">
            177.99000549316406 return
          </CharString>
          <CharString index="111">
            176 -27 callsubr
            122 -81 40 vhcurveto
            -157 -136 -5.0200042724609375 -41 rlineto
            48 60 callgsubr
            29 162 callsubr
            8 callsubr
            vvcurveto
            -160 -90.99000549316406 208 callgsubr
            -126 rlineto
            134 98 callgsubr
            -4 callgsubr
            168 283.00999450683594 vvcurveto
            return
          </CharString>
          <CharString index="112">
            rmoveto
            -91 -675 rlineto
            -567.9900054931641 hlineto
            -25 callsubr
            675 0 callgsubr
            223 callgsubr
            657.9799957275391 rlineto
            568.0099945068359 hlineto
            -89 -657.9799957275391 rlineto
            278 hlineto
            206 1530 rlineto
            -278.02000427246094 hlineto
            endchar
          </CharString>
          <CharString index="113">
            rmoveto
            -47 -226 rlineto
            -30 37 143 -33.970001220703125 133 hhcurveto
            return
          </CharString>
          <CharString index="114">
            64 81 93.99000549316406 return
          </CharString>
          <CharString index="115">
            -77.99000549316406 return
          </CharString>
          <CharString index="116">
            316 -816 rmoveto
            161 callsubr
            -69 6 7 -29 hvcurveto
            81 606.9900054931641 rlineto
            8 43.99000549316406 -52 callsubr
            7 40 hhcurveto
            -4 callgsubr
            76 -13 callsubr
            -155 -6 hvcurveto
            -19 callsubr
            -250 -109.02000427246094 -142 -237 -74 callsubr
            rrcurveto
            endchar
          </CharString>
          <CharString index="117">
            3 hvcurveto
            76 -82 callsubr
            -3 callsubr
            64 return
          </CharString>
          <CharString index="118">
            -72.99000549316406 return
          </CharString>
          <CharString index="119">
            170.99000549316406 return
          </CharString>
          <CharString index="120">
            -130.99000549316406 return
          </CharString>
          <CharString index="121">
            vstem
            197.97999572753906 1245 rmoveto
            -176 101 -122 81 -40 vhcurveto
            157 135.99000549316406 5 41 rlineto
            -47.99000549316406 43 -29 91 78 vvcurveto
            159.99000549316406 91 117 69 35 vhcurveto
            2 22 -95.00999450683594 126.02000427246094 rlineto
            -134 -60 -200 -168 -283 vvcurveto
            return
          </CharString>
          <CharString index="122">
            157 -276.99000549316406 83 callgsubr
            return
          </CharString>
          <CharString index="123">
            -30 callgsubr
            -60 -47 callsubr
            -86 19 vhcurveto
            return
          </CharString>
          <CharString index="124">
            vvcurveto
            -83.99000549316406 70 -75 callsubr
            return
          </CharString>
          <CharString index="125">
            61.99000549316406 164.99000549316406 467.99998474121094 164 -149.989990234375 164.99000549316406 469.00999450683594 163 hstemhm
            151.97999572753906 198 343 208.00999450683594 204.00001525878906 198 343.989990234375 207 return
          </CharString>
          <CharString index="126">
            141 callgsubr
            131 111 callgsubr
            return
          </CharString>
          <CharString index="127">
            -74 -95 callgsubr
            176.99000549316406 796.9900054931641 198 return
          </CharString>
          <CharString index="128">
            -107.00999450683594 -119.99000549316406 59 33 -40 return
          </CharString>
          <CharString index="129">
            0 11 11 vvcurveto
            -158 hlineto
            -70 -18 return
          </CharString>
          <CharString index="130">
            hvcurveto
            -2 -72 callgsubr
            return
          </CharString>
          <CharString index="131">
            -520.9900054931641 12 callsubr
            return
          </CharString>
          <CharString index="132">
            -242 -97 callgsubr
            -84 return
          </CharString>
          <CharString index="133">
            92 callsubr
            89.99000549316406 -60 rlineto
            return
          </CharString>
          <CharString index="134">
            197.97999572753906 797.9900054931641 176 return
          </CharString>
          <CharString index="135">
            64 -65 82 hhcurveto
            110 48 callgsubr
            81 94 3 hvcurveto
            75 return
          </CharString>
          <CharString index="136">
            1257 -95 callgsubr
            204.97999572753906 -188.989990234375 21 callgsubr
            -186.99998474121094 -56 callsubr
            hstemhm
            149 callsubr
            return
          </CharString>
          <CharString index="137">
            -206 -1530 rlineto
            return
          </CharString>
          <CharString index="138">
            -447 -362 1958.990005493164 hstem
            -118 1085.990005493164 vstem
            -118 -362 rmoveto
            -2 callsubr
            hlineto
            863 1958.990005493164 rlineto
            -223.99000549316406 hlineto
            -862 -1958.990005493164 rlineto
            endchar
          </CharString>
          <CharString index="139">
            68 -201 374 -16 callsubr
            -374 return
          </CharString>
          <CharString index="140">
            rmoveto
            223 callgsubr
            659.9900054931641 454 -12 24 230 -449 -7 59 449 549.0099945068359 -6 28 216 rlineto
            -824.0099945068359 hlineto
            endchar
          </CharString>
          <CharString index="141">
            84 callsubr
            -31 -36 -195 -179 hhcurveto
            -8 120 callgsubr
            196 190 332.97999572753906 return
          </CharString>
          <CharString index="142">
            174 callgsubr
            36 71 callsubr
            return
          </CharString>
          <CharString index="143">
            -169 66 callsubr
            -145 228 return
          </CharString>
          <CharString index="144">
            199 rcurveline
            22 -51 -60 4 -53 hhcurveto
            return
          </CharString>
          <CharString index="145">
            152 callgsubr
            -12 -179 159 callsubr
            13 179 rlineto
            -543.9900054931641 hlineto
            return
          </CharString>
          <CharString index="146">
            -45 callgsubr
            -12 callgsubr
            106 rlinecurve
            return
          </CharString>
          <CharString index="147">
            70.99000549316406 return
          </CharString>
          <CharString index="148">
            24 callsubr
            1702.990005493164 315 hstemhm
            return
          </CharString>
          <CharString index="149">
            -206 -509 208.00999450683594 hstem
            791.9799957275391 258 vstem
            return
          </CharString>
          <CharString index="150">
            -60 callsubr
            284 callsubr
            return
          </CharString>
          <CharString index="151">
            75 286.97999572753906 return
          </CharString>
          <CharString index="152">
            149 callgsubr
            222 callsubr
            226.02000427246094 -36 callgsubr
            176 157 11 vhcurveto
            1 11 22 callsubr
            -33 callsubr
            return
          </CharString>
          <CharString index="153">
            3 callgsubr
            232 return
          </CharString>
          <CharString index="154">
            18.990005493164062 return
          </CharString>
          <CharString index="155">
            101.99000549316406 return
          </CharString>
          <CharString index="156">
            -71.99000549316406 return
          </CharString>
          <CharString index="157">
            66.99000549316406 -86 155 callsubr
            -2 hvcurveto
            447 hmoveto
            135 callsubr
            57 callgsubr
            return
          </CharString>
          <CharString index="158">
            -38 callgsubr
            244 callsubr
            138 callsubr
            return
          </CharString>
          <CharString index="159">
            1303 1530 rmoveto
            -837.0200042724609 -1530 rlineto
            214.02000427246094 hlineto
            826.9799957275391 1530 rlineto
            -203.97999572753906 hlineto
            -1151.020004272461 -485 rmoveto
            return
          </CharString>
          <CharString index="160">
            hmoveto
            -74 -1 60 -69 208 callsubr
            126 callsubr
            127 callsubr
            40 callgsubr
            126 callgsubr
            -74 -77 -93 -1 hvcurveto
            return
          </CharString>
          <CharString index="161">
            -4 callsubr
            175 -621 388 -75 callsubr
            182 callsubr
            389 -326 -470 -331.02000427246094 48 -159.99000549316406 717 396 rlineto
            endchar
          </CharString>
          <CharString index="162">
            1241.990005493164 rmoveto
            283 callsubr
            -294.00999450683594 72 callgsubr
            return
          </CharString>
          <CharString index="163">
            122 11 -145 179 hhcurveto
            116 132.02000427246094 98 98 return
          </CharString>
          <CharString index="164">
            1574.990005493164 rmoveto
            262 callgsubr
            return
          </CharString>
          <CharString index="165">
            213.99000549316406 715 211 return
          </CharString>
          <CharString index="166">
            224.99000549316406 return
          </CharString>
          <CharString index="167">
            94.99000549316406 return
          </CharString>
          <CharString index="168">
            1576.979995727539 rmoveto
            50 1 callsubr
            236 -211 48 callsubr
            -40 104 2 callsubr
            rcurveline
            -310.99000549316406 104 callsubr
            rlineto
            return
          </CharString>
          <CharString index="169">
            1574.990005493164 rmoveto
            -180 169 -321 -425 154 callgsubr
            36 -41 callsubr
            rlinecurve
            return
          </CharString>
          <CharString index="170">
            7 callsubr
            1.9900054931640625 129 callgsubr
            return
          </CharString>
          <CharString index="171">
            -52 callgsubr
            -77 hhcurveto
            return
          </CharString>
          <CharString index="172">
            72 callgsubr
            -106 return
          </CharString>
          <CharString index="173">
            83.99000549316406 return
          </CharString>
          <CharString index="174">
            3.0200042724609375 return
          </CharString>
          <CharString index="175">
            -41 48 rlineto
            -773 hlineto
            -29 -211 rlineto
            488 hlineto
            -111 -104 rlineto
            hintmask 01111000
            -567.0099945068359 268 callsubr
            -532.9900054931641 hlineto
            return
          </CharString>
          <CharString index="176">
            43.99000549316406 52 -98 callgsubr
            33.02000427246094 hhcurveto
            522 -6 293.99000549316406 436.97999572753906 -5 512 rrcurveto
            -764.9900054931641 -738 rmoveto
            return
          </CharString>
          <CharString index="177">
            hvcurveto
            -41 callsubr
            return
          </CharString>
          <CharString index="178">
            -41 callsubr
            rlinecurve
            return
          </CharString>
          <CharString index="179">
            rmoveto
            79 callgsubr
            69.02000427246094 509.99000549316406 rlineto
            -3 23.990005493164062 65 -98 callgsubr
            82 hhcurveto
            return
          </CharString>
          <CharString index="180">
            123 callsubr
            hvcurveto
            -1 113 callgsubr
            261 callsubr
            202 callgsubr
            hlineto
            return
          </CharString>
          <CharString index="181">
            72.00999450683594 return
          </CharString>
          <CharString index="182">
            221 -429 -6 58 432 571 -5 rlineto
            -1344 -757 rmoveto
            413 779 86 123 callsubr
            -104 -770.9900054931641 rlineto
            -395 hlineto
            endchar
          </CharString>
          <CharString index="183">
            rrcurveto
            -126.02000427246094 -98 callgsubr
            -75.02000427246094 -62 callgsubr
            -93 hhcurveto
            -33 callsubr
            -27.009994506835938 6 -13 callgsubr
            return
          </CharString>
          <CharString index="184">
            424.02000427246094 286.99000549316406 141.99000549316406 362.99000549316406 -98 callgsubr
            hvcurveto
            -1 167.02000427246094 -115 116.99000549316406 return
          </CharString>
          <CharString index="185">
            hlineto
            -87 -43 -175 -115 -141 17 callsubr
            return
          </CharString>
          <CharString index="186">
            hstem
            65 callgsubr
            vstem
            return
          </CharString>
          <CharString index="187">
            75.97999572753906 287 return
          </CharString>
          <CharString index="188">
            rmoveto
            -24 callgsubr
            return
          </CharString>
          <CharString index="189">
            -13 callsubr
            -82 return
          </CharString>
          <CharString index="190">
            136.99000549316406 return
          </CharString>
          <CharString index="191">
            -221.97999572753906 return
          </CharString>
          <CharString index="192">
            25 callgsubr
            -115 77 return
          </CharString>
          <CharString index="193">
            36 49 callgsubr
            136 return
          </CharString>
          <CharString index="194">
            57 callsubr
            -321 -425 94 callsubr
            return
          </CharString>
          <CharString index="195">
            31.990005493164062 return
          </CharString>
          <CharString index="196">
            -85.00999450683594 return
          </CharString>
          <CharString index="197">
            179 callsubr
            180.02000427246094 253 callsubr
            -102.02000427246094 239 callsubr
            -39 -60 return
          </CharString>
          <CharString index="198">
            457.99000549316406 176.99000549316406 197 54 -113.00999450683594 76 -162 30 -57 rlinecurve
            76 -156 68 -140 18 -8 callgsubr
            return
          </CharString>
          <CharString index="199">
            -40 -35 -25 211 callgsubr
            -62 callgsubr
            return
          </CharString>
          <CharString index="200">
            -98 callgsubr
            91 return
          </CharString>
          <CharString index="201">
            104 89 callsubr
            return
          </CharString>
          <CharString index="202">
            -108 -16 -99 hhcurveto
            240 callsubr
            hlineto
            -91 callgsubr
            124 hlineto
            48 callgsubr
            129 144 callsubr
            return
          </CharString>
          <CharString index="203">
            -75 callgsubr
            -86 hhcurveto
            return
          </CharString>
          <CharString index="204">
            26.009994506835938 return
          </CharString>
          <CharString index="205">
            96.99000549316406 return
          </CharString>
          <CharString index="206">
            -176.99000549316406 return
          </CharString>
          <CharString index="207">
            3.9900054931640625 return
          </CharString>
          <CharString index="208">
            -227 145 callsubr
            -56 callsubr
            298.00999450683594 178 callgsubr
            100.99000549316406 917.9900054931641 vstem
            return
          </CharString>
          <CharString index="209">
            1495.979995727539 rmoveto
            117 callsubr
            return
          </CharString>
          <CharString index="210">
            -34 callsubr
            158 callgsubr
            return
          </CharString>
          <CharString index="211">
            425.99000549316406 -181 -169 return
          </CharString>
          <CharString index="212">
            -1073 rlineto
            84 callsubr
            return
          </CharString>
          <CharString index="213">
            rlineto
            -37 callgsubr
            return
          </CharString>
          <CharString index="214">
            30.990005493164062 return
          </CharString>
          <CharString index="215">
            42.99000549316406 return
          </CharString>
          <CharString index="216">
            117 callgsubr
            12 callgsubr
            -70 208 callsubr
            105 63 81 94 3 hvcurveto
            71 return
          </CharString>
          <CharString index="217">
            0 216.49000549316406 139.489990234375 201 121.010009765625 253 callgsubr
            return
          </CharString>
          <CharString index="218">
            -473 190.99000549316406 return
          </CharString>
          <CharString index="219">
            14.009994506835938 return
          </CharString>
          <CharString index="220">
            82.97999572753906 return
          </CharString>
          <CharString index="221">
            -20.990005493164062 return
          </CharString>
          <CharString index="222">
            -67.99000549316406 return
          </CharString>
          <CharString index="223">
            -447 -185.99000549316406 1965.990005493164 hstem
            336.99000549316406 67 callgsubr
            vstem
            337 1780 rmoveto
            return
          </CharString>
          <CharString index="224">
            -64 callgsubr
            -3 -52 callsubr
            -64 return
          </CharString>
          <CharString index="225">
            276.99000549316406 1 return
          </CharString>
          <CharString index="226">
            102 callsubr
            132 callsubr
            hhcurveto
            111 71 80 95 return
          </CharString>
          <CharString index="227">
            -27 callsubr
            -29 163 callgsubr
            -163 hhcurveto
            -107.00999450683594 297 callgsubr
            return
          </CharString>
          <CharString index="228">
            -56.02000427246094 return
          </CharString>
          <CharString index="229">
            -31.009994506835938 return
          </CharString>
          <CharString index="230">
            -8.009994506835938 return
          </CharString>
          <CharString index="231">
            60.99000549316406 return
          </CharString>
          <CharString index="232">
            374 -16 callsubr
            -374 213 callsubr
            rlineto
            return
          </CharString>
          <CharString index="233">
            105 7 callsubr
            return
          </CharString>
          <CharString index="234">
            3 158 callsubr
            return
          </CharString>
          <CharString index="235">
            hvcurveto
            84 callgsubr
            239 callsubr
            return
          </CharString>
          <CharString index="236">
            63 -97 hhcurveto
            -95 -79 -60 callsubr
            -93 return
          </CharString>
          <CharString index="237">
            vstem
            296.97999572753906 return
          </CharString>
          <CharString index="238">
            1660.990005493164 rmoveto
            return
          </CharString>
          <CharString index="239">
            77.99000549316406 return
          </CharString>
          <CharString index="240">
            113.00999450683594 return
          </CharString>
          <CharString index="241">
            -95.99000549316406 return
          </CharString>
          <CharString index="242">
            -73.99000549316406 return
          </CharString>
          <CharString index="243">
            -8.990005493164062 return
          </CharString>
          <CharString index="244">
            126 callsubr
            44 callgsubr
            40 callgsubr
            -52 callsubr
            return
          </CharString>
          <CharString index="245">
            207 callgsubr
            -217 152 callsubr
            return
          </CharString>
          <CharString index="246">
            105 64 81 94 252 callsubr
            87 callgsubr
            -68 return
          </CharString>
          <CharString index="247">
            rmoveto
            -681 -1530 rlineto
            209.02000427246094 hlineto
            680.9900054931641 1530 rlineto
            -209 hlineto
            return
          </CharString>
          <CharString index="248">
            285 callgsubr
            -277 83 callgsubr
            return
          </CharString>
          <CharString index="249">
            1634.979995727539 180 callsubr
            -75 100 37 return
          </CharString>
          <CharString index="250">
            428.99000549316406 return
          </CharString>
          <CharString index="251">
            -14.990005493164062 return
          </CharString>
          <CharString index="252">
            326.97999572753906 return
          </CharString>
          <CharString index="253">
            3 79.00999450683594 hhcurveto
            166 callsubr
            98 -62 -163 2 hvcurveto
            -227 2 -154 -64 return
          </CharString>
          <CharString index="254">
            138.99000549316406 -69 callgsubr
            return
          </CharString>
          <CharString index="255">
            101 callgsubr
            -133 hhcurveto
            -122 return
          </CharString>
          <CharString index="256">
            1071.979995727539 -69 callgsubr
            return
          </CharString>
          <CharString index="257">
            81 94 -88 callsubr
            75 2 return
          </CharString>
          <CharString index="258">
            -372.02000427246094 rlineto
            return
          </CharString>
          <CharString index="259">
            218 callgsubr
            rlineto
            return
          </CharString>
          <CharString index="260">
            65 callsubr
            -35 callsubr
            280 callgsubr
            return
          </CharString>
          <CharString index="261">
            1595.990005493164 rmoveto
            -543.0099945068359 hlineto
            -11 -179 rlineto
            543 hlineto
            11 179 rlineto
            return
          </CharString>
          <CharString index="262">
            hhcurveto
            -93 -69 -17 callgsubr
            return
          </CharString>
          <CharString index="263">
            -60 callsubr
            86 callgsubr
            return
          </CharString>
          <CharString index="264">
            104 7 callsubr
            return
          </CharString>
          <CharString index="265">
            hvcurveto
            71 -82 callsubr
            return
          </CharString>
          <CharString index="266">
            rlineto
            542.9900054931641 hlineto
            return
          </CharString>
          <CharString index="267">
            -28.020004272460938 return
          </CharString>
          <CharString index="268">
            -49.99000549316406 return
          </CharString>
          <CharString index="269">
            -91.00999450683594 return
          </CharString>
          <CharString index="270">
            181.99000549316406 return
          </CharString>
          <CharString index="271">
            36.99000549316406 return
          </CharString>
          <CharString index="272">
            65.99000549316406 return
          </CharString>
          <CharString index="273">
            193.99000549316406 return
          </CharString>
          <CharString index="274">
            -232 653.9799957275391 220.50999450683594 442.510009765625 67 callgsubr
            return
          </CharString>
          <CharString index="275">
            204 callsubr
            vstem
            1054.990005493164 1838.979995727539 rmoveto
            -485.99000549316406 return
          </CharString>
          <CharString index="276">
            852.9900054931641 rmoveto
            610 677 rlineto
            -318 hlineto
            -600 -719.0099945068359 return
          </CharString>
          <CharString index="277">
            555.9900054931641 530.9799957275391 rmoveto
            -30 -257.97999572753906 rlineto
            226 hlineto
            return
          </CharString>
          <CharString index="278">
            144 callsubr
            245 callsubr
            515.9900054931641 188 470 192 return
          </CharString>
          <CharString index="279">
            -17 callgsubr
            -2 hvcurveto
            return
          </CharString>
          <CharString index="280">
            1792 rmoveto
            97 -110.02000427246094 40 42 return
          </CharString>
          <CharString index="281">
            1664.979995727539 180 callsubr
            -93 return
          </CharString>
          <CharString index="282">
            179 callsubr
            180 hhcurveto
            return
          </CharString>
          <CharString index="283">
            169 221 callgsubr
            -425 return
          </CharString>
          <CharString index="284">
            -2 callgsubr
            hstem
            return
          </CharString>
          <CharString index="285">
            hvcurveto
            11 callsubr
            return
          </CharString>
          <CharString index="286">
            -2 122 11 -140 return
          </CharString>
          <CharString index="287">
            rmoveto
            -45 callsubr
            return
          </CharString>
          <CharString index="288">
            62 -69.97999572753906 return
          </CharString>
          <CharString index="289">
            -141.99000549316406 return
          </CharString>
          <CharString index="290">
            189.99000549316406 return
          </CharString>
          <CharString index="291">
            -57.02000427246094 return
          </CharString>
          <CharString index="292">
            329.00999450683594 return
          </CharString>
          <CharString index="293">
            265.00999450683594 return
          </CharString>
          <CharString index="294">
            1138.009994506836 return
          </CharString>
          <CharString index="295">
            -31.990005493164062 return
          </CharString>
          <CharString index="296">
            -1140 rlineto
            return
          </CharString>
          <CharString index="297">
            185 callgsubr
            231 callgsubr
            return
          </CharString>
          <CharString index="298">
            rmoveto
            -42 callsubr
            -95 -173 return
          </CharString>
          <CharString index="299">
            211 -50 callgsubr
            return
          </CharString>
          <CharString index="300">
            104 -85 108 callgsubr
            46 241 227 35.99000549316406 68 rlinecurve
            return
          </CharString>
          <CharString index="301">
            rmoveto
            -681 -1530 rlineto
            209 hlineto
            681 1530 rlineto
            -209 hlineto
            return
          </CharString>
          <CharString index="302">
            131 callgsubr
            -160.02000427246094 return
          </CharString>
          <CharString index="303">
            343 -31 callgsubr
            return
          </CharString>
          <CharString index="304">
            143.989990234375 303 return
          </CharString>
          <CharString index="305">
            8.009994506835938 return
          </CharString>
          <CharString index="306">
            147.99000549316406 return
          </CharString>
          <CharString index="307">
            -105.99000549316406 return
          </CharString>
          <CharString index="308">
            299.99000549316406 return
          </CharString>
          <CharString index="309">
            321.97999572753906 return
          </CharString>
          <CharString index="310">
            55.99000549316406 return
          </CharString>
          <CharString index="311">
            142.99000549316406 return
          </CharString>
          <CharString index="312">
            145 110 110 29 hvcurveto
            -103 106 rlineto
            -70 -48 -63 -42 -81 -121 return
          </CharString>
          <CharString index="313">
            rmoveto
            -112 228 callsubr
            return
          </CharString>
          <CharString index="314">
            262 callgsubr
            -321 -425 return
          </CharString>
          <CharString index="315">
            48 callgsubr
            hhcurveto
            return
          </CharString>
          <CharString index="316">
            848.9900054931641 hstem
            return
          </CharString>
          <CharString index="317">
            -34 callgsubr
            rlineto
            return
          </CharString>
          <CharString index="318">
            135 callsubr
            -3 return
          </CharString>
          <CharString index="319">
            85 callsubr
            -300.00999450683594 -206 return
          </CharString>
          <CharString index="320">
            -45 callsubr
            49 callsubr
            301.02000427246094 223 return
          </CharString>
          <CharString index="321">
            176 callsubr
            rlineto
            return
          </CharString>
          <CharString index="322">
            -84.99000549316406 return
          </CharString>
          <CharString index="323">
            22.020004272460938 return
          </CharString>
          <CharString index="324">
            -3.9900054931640625 return
          </CharString>
          <CharString index="325">
            220.99000549316406 return
          </CharString>
          <CharString index="326">
            298.97999572753906 return
          </CharString>
          <CharString index="327">
            15.009994506835938 return
          </CharString>
          <CharString index="328">
            -101.00999450683594 return
          </CharString>
          <CharString index="329">
            227.97999572753906 return
          </CharString>
          <CharString index="330">
            vstem
            247.99000549316406 873.9799957275391 rmoveto
            -27 -203 rlineto
            return
          </CharString>
          <CharString index="331">
            1102.990005493164 300 callsubr
            -78 return
          </CharString>
          <CharString index="332">
            hlineto
            21 145 30 196.02000427246094 23 169.99000549316406 return
          </CharString>
          <CharString index="333">
            1792 rmoveto
            97.02000427246094 -110.02000427246094 40 42 return
          </CharString>
          <CharString index="334">
            97 -140 101.00999450683594 -77 69 5 128 rrcurveto
            121 return
          </CharString>
          <CharString index="335">
            -70 -75 callsubr
            -97 8 callsubr
            56 -55 81 return
          </CharString>
          <CharString index="336">
            rmoveto
            246 callsubr
            -93 -34 callsubr
            36 183 return
          </CharString>
          <CharString index="337">
            -1.9799957275390625 rcurveline
            -65 100.97999572753906 -66 117 return
          </CharString>
          <CharString index="338">
            1378 81 callsubr
            -787 296 callgsubr
            return
          </CharString>
          <CharString index="339">
            -393.02000427246094 485.99000549316406 486.00999450683594 return
          </CharString>
          <CharString index="340">
            1944.990005493164 149 callgsubr
            return
          </CharString>
          <CharString index="341">
            -272 282 callsubr
            return
          </CharString>
          <CharString index="342">
            0 1529.990005493164 hstem
            return
          </CharString>
          <CharString index="343">
            -98 callgsubr
            63 return
          </CharString>
          <CharString index="344">
            246.99000549316406 return
          </CharString>
          <CharString index="345">
            1318.990005493164 return
          </CharString>
          <CharString index="346">
            117 rlineto
            -50 -40 return
          </CharString>
          <CharString index="347">
            -126.00999450683594 return
          </CharString>
          <CharString index="348">
            -72.00999450683594 return
          </CharString>
          <CharString index="349">
            301.99000549316406 return
          </CharString>
          <CharString index="350">
            201.99000549316406 return
          </CharString>
          <CharString index="351">
            178.02000427246094 return
          </CharString>
          <CharString index="352">
            194.99000549316406 return
          </CharString>
          <CharString index="353">
            108.02000427246094 return
          </CharString>
          <CharString index="354">
            1140 rlineto
            return
          </CharString>
          <CharString index="355">
            503.99000549316406 210 635 196.99000549316406 return
          </CharString>
          <CharString index="356">
            -46 callgsubr
            rlineto
            return
          </CharString>
          <CharString index="357">
            1850 rmoveto
            return
          </CharString>
          <CharString index="358">
            -12 -4 24 callgsubr
            return
          </CharString>
          <CharString index="359">
            44 callgsubr
            121 callsubr
            return
          </CharString>
          <CharString index="360">
            hhcurveto
            115 132 180 callgsubr
            37 hvcurveto
            return
          </CharString>
          <CharString index="361">
            166 callgsubr
            rmoveto
            111 return
          </CharString>
          <CharString index="362">
            274 callsubr
            291 return
          </CharString>
          <CharString index="363">
            63 -70 74 callsubr
            hhcurveto
            return
          </CharString>
          <CharString index="364">
            1653.979995727539 return
          </CharString>
          <CharString index="365">
            1606.979995727539 return
          </CharString>
          <CharString index="366">
            217.99000549316406 return
          </CharString>
          <CharString index="367">
            35.97999572753906 return
          </CharString>
          <CharString index="368">
            1 13 11 vvcurveto
            return
          </CharString>
          <CharString index="369">
            -167 157 return
          </CharString>
          <CharString index="370">
            131 callsubr
            -36 callgsubr
            -72 return
          </CharString>
          <CharString index="371">
            135 callgsubr
            -2 181 callsubr
            return
          </CharString>
          <CharString index="372">
            -679 24 callsubr
            return
          </CharString>
          <CharString index="373">
            -684 1717.979995727539 -2 callgsubr
            return
          </CharString>
          <CharString index="374">
            238 callsubr
            rmoveto
            94 callsubr
            return
          </CharString>
          <CharString index="375">
            -773 47 220 callgsubr
            22 214 rlineto
            return
          </CharString>
          <CharString index="376">
            -355.99000549316406 rmoveto
            11 callgsubr
            return
          </CharString>
          <CharString index="377">
            958.9900054931641 hstem
            return
          </CharString>
          <CharString index="378">
            hlineto
            146 callgsubr
            return
          </CharString>
          <CharString index="379">
            -82 callsubr
            hvcurveto
            return
          </CharString>
          <CharString index="380">
            42 43.99000549316406 return
          </CharString>
          <CharString index="381">
            hstemhm
            2 callgsubr
            return
          </CharString>
          <CharString index="382">
            -258.99000549316406 -189 -230 -231 return
          </CharString>
          <CharString index="383">
            hstemhm
            -17 callsubr
            return
          </CharString>
          <CharString index="384">
            hvcurveto
            -70 -146 106 callsubr
            28 return
          </CharString>
          <CharString index="385">
            -135.99000549316406 198 274 174 return
          </CharString>
          <CharString index="386">
            124 callgsubr
            -489.99000549316406 rlineto
            return
          </CharString>
          <CharString index="387">
            175 callsubr
            115 return
          </CharString>
          <CharString index="388">
            49 165 callsubr
            -1 return
          </CharString>
          <CharString index="389">
            0 59 callsubr
            hstem
            return
          </CharString>
          <CharString index="390">
            343 341 -115 77 return
          </CharString>
          <CharString index="391">
            -93 -98 callgsubr
            hvcurveto
            return
          </CharString>
          <CharString index="392">
            hintmask 00000000
            hintmask 11100000
            return
          </CharString>
          <CharString index="393">
            -147.99000549316406 return
          </CharString>
          <CharString index="394">
            107.00999450683594 return
          </CharString>
          <CharString index="395">
            153.99000549316406 return
          </CharString>
          <CharString index="396">
            277.99000549316406 return
          </CharString>
          <CharString index="397">
            302.97999572753906 return
          </CharString>
          <CharString index="398">
            678.9900054931641 return
          </CharString>
          <CharString index="399">
            -335.99000549316406 return
          </CharString>
          <CharString index="400">
            -182.99000549316406 return
          </CharString>
          <CharString index="401">
            -25.009994506835938 return
          </CharString>
          <CharString index="402">
            -70.99000549316406 return
          </CharString>
          <CharString index="403">
            hhcurveto
            -442 -294.00999450683594 -426 return
          </CharString>
          <CharString index="404">
            81 94 44 callgsubr
            return
          </CharString>
          <CharString index="405">
            157 -277 83 callgsubr
            rlineto
            return
          </CharString>
          <CharString index="406">
            1259 110.97999572753906 175 return
          </CharString>
          <CharString index="407">
            rmoveto
            -112 -70 -75 callsubr
            -97 return
          </CharString>
          <CharString index="408">
            -1199.979995727539 rmoveto
            302 callsubr
            return
          </CharString>
          <CharString index="409">
            -140 -112 return
          </CharString>
        <CharString name=".notdef">
          571 0 218.99000549316406 973.989990234375 223 hstem
          218 callsubr
          228.99000549316406 959.9999847412109 227 vstem
          221 1415.990005493164 rmoveto
          -1415.990005493164 1415.990005493164 1415.990005493164 -1415.990005493164 vlineto
          358 -1197 rmoveto
          -128 144 357.99000549316406 342 -359 363.00999450683594 123 124.99000549316406 357.00999450683594 -367.99000549316406 351.99000549316406 366 128 -124 -362.99000549316406 -357.99000549316406 362.99000549316406 -368 -122 -122 -362 368 -346.99000549316406 -368 rlineto
          endchar
        </CharString>
        <CharString name="A">
          -50 callsubr
          hstem
          -100 1334.979995727539 vstem
          957.9900054931641 -1 -102 callsubr
        </CharString>
        <CharString name="AE">
          573 110 callsubr
          -125 1964.990005493164 vstem
          1817.990005493164 1314 -1 callgsubr
          432 -12 23.990005493164062 75 callsubr
        </CharString>
        <CharString name="AEacute">
          579 110 callsubr
          -119 1964.990005493164 vstem
          1477 -22 callsubr
          291 callgsubr
          -536 -1 callgsubr
          432.00999450683594 -12 23.979995727539062 75 callsubr
        </CharString>
        <CharString name="Aacute">
          -50 callsubr
          hstem
          -100 1334.979995727539 vstem
          1180 250 callsubr
          141 callsubr
          108 -9 callsubr
          -12 callgsubr
          106 rlinecurve
          -222 -1851 -102 callsubr
        </CharString>
        <CharString name="Abreve">
          -50 callsubr
          100.989990234375 182 hstem
          512.9799957275391 74 callgsubr
          vstem
          825 1630.990005493164 rmoveto
          226 -36 callgsubr
          176 157 11.020004272460938 hvcurveto
          184 callgsubr
          11 0 11 11 vvcurveto
          -157.99000549316406 hlineto
          -70 -18 -31 -113.99000549316406 -133 hhcurveto
          -122 -25 72 74 -8 hvcurveto
          -53 callgsubr
          113 callgsubr
          184 callgsubr
          13 11 vvcurveto
          -161 hlineto
          -98 callgsubr
          -12 -4.0200042724609375 24 callgsubr
          176 callgsubr
          228 vhcurveto
          133 -1631.990005493164 -102 callsubr
        </CharString>
        <CharString name="Acircumflex">
          -50 callsubr
          hstem
          -100 1334.979995727539 vstem
          872 1793.990005493164 rmoveto
          -63 callgsubr
          156 callgsubr
          rlineto
          86 -1794.990005493164 -102 callsubr
        </CharString>
        <CharString name="Adieresis">
          -50 callsubr
          134.00999450683594 82 callgsubr
          455.97999572753906 242 callsubr
          144.00999450683594 303 vstem
          587.9799957275391 1664 rmoveto
          104.02000427246094 63 callsubr
          -89.00999450683594 49 callsubr
          -77 -93 -3 hvcurveto
          264 callsubr
          208 callsubr
          445.00999450683594 hmoveto
          137 callsubr
          -13 callsubr
          hhcurveto
          -87.99000549316406 -74.02000427246094 -77 -93 -1 hvcurveto
          -74 -53 callgsubr
          98 callgsubr
          -69 74 callsubr
          hhcurveto
          -75 -1665 -102 callsubr
        </CharString>
        <CharString name="Agrave">
          -50 callsubr
          hstem
          -100 1334.979995727539 vstem
          811.9900054931641 1571.979995727539 180 callsubr
          93 -276.99000549316406 175 callgsubr
          57 256 callgsubr
          -47 callsubr
          -36 rlinecurve
          146 -1572.979995727539 -102 callsubr
        </CharString>
        <CharString name="Amacron">
          -50 callsubr
          187.989990234375 177 callsubr
          -100 1334.979995727539 vstem
          1090.990005493164 152 callgsubr
          -544.0200042724609 hlineto
          -11.979995727539062 -179 159 callsubr
          13 179 rlineto
          -133 -1897.979995727539 -102 callsubr
        </CharString>
        <CharString name="Aogonek">
          10 111 callsubr
          623 -53 callsubr
          800.0099945068359 193 hstem
          728.9799957275391 242 callgsubr
          vstem
          1031.990005493164 -282 rmoveto
          -31 -34 13 56 69 121.02000427246094 88.99000549316406 104.97999572753906 55 hvcurveto
          48 hlineto
          -20 callgsubr
          -743.9900054931641 -1531 300.99000549316406 1 199 callsubr
          106 callgsubr
          561.0099945068359 hlineto
          48 -341.99000549316406 rlineto
          25 hlineto
          -87.02000427246094 60 callgsubr
          -173 247 callgsubr
          -140 19 callsubr
          -56 258 callgsubr
          -13 -45 hhcurveto
          -590.9900054931641 818.9900054931641 rmoveto
          294.99000549316406 679.0200042724609 47 121 10 -118 -47 callsubr
          -682 rlineto
          -448 hlineto
          endchar
        </CharString>
        <CharString name="Aring">
          4 -31 callgsubr
          -53 callsubr
          1348.009994506836 122 hstem
          499.99000549316406 74 callgsubr
          322.99998474121094 169 vstem
          957.9900054931641 -1 rmoveto
          118 callsubr
          -251.99000549316406 1501.979995727539 rlineto
          48 callsubr
          43 75 84 128.99000549316406 vvcurveto
          163 -118.99000549316406 86.02000427246094 -172 -159 -209.99000549316406 -37 callsubr
          -210 -102 47.99000549316406 135 callgsubr
          83 -40 vhcurveto
          -730.9900054931641 -1503.990005493164 300.99000549316406 1 148 106 callgsubr
          560.9900054931641 hlineto
          48 -341.99000549316406 rlineto
          -110 1886 rmoveto
          80 63 -55 -77 13 callsubr
          -88 -30 -34 callgsubr
          -35 callsubr
          115 callsubr
          59 76 122 98 callsubr
          36 83 hvcurveto
          -413 -1348.009994506836 rmoveto
          294.99000549316406 679.0200042724609 47 121 9.990005493164062 -118 96.02000427246094 -682 rlineto
          -448 hlineto
          endchar
        </CharString>
        <CharString name="Atilde">
          -50 callsubr
          99.989990234375 -9 callgsubr
          -100 1379 hintmask 10101000
          681.9799957275391 45 callgsubr
          hintmask 10011000
          -18 callsubr
          -43.99000549316406 hvcurveto
          98 callsubr
          -110.02000427246094 rlineto
          hintmask 10101000
          279 callgsubr
          hintmask 11101000
          -43 callgsubr
          -242 rmoveto
          -743.9900054931641 -1531 300.99000549316406 1 148 106 callgsubr
          560.9900054931641 hlineto
          48 -341.99000549316406 118 callsubr
          -20 callgsubr
          -209 -993.0099945068359 rmoveto
          294.99000549316406 679.0200042724609 47 121 9.990005493164062 -118 96.02000427246094 -682 rlineto
          -448 hlineto
          endchar
        </CharString>
        <CharString name="B">
          -5 171 callsubr
          hstemhm
          909.9799957275391 293 -266 281 hintmask 11110000
          914.9799957275391 802.9799957275391 rmoveto
          hintmask 11101000
          91 callgsubr
          -108.99000549316406 95 callsubr
          79 hhcurveto
          hintmask 11110000
          77 callsubr
          -172.02000427246094 29 rrcurveto
          hintmask 11101000
          139 callgsubr
          -40.97999572753906 -47 0 -82 callsubr
          -43 hvcurveto
          63 462 rlineto
          5 42 165 callgsubr
          1 44 hhcurveto
          167 83 -48 -129 272 callsubr
          hintmask 11110000
          -395.99000549316406 -996.9900054931641 rmoveto
          -36 -69 -97 callgsubr
          9.020004272460938 -43 hvcurveto
          -75 callgsubr
          499 rlineto
          -82 callsubr
          33 44 146 callsubr
          183 callgsubr
          hhcurveto
          endchar
        </CharString>
        <CharString name="C">
          -14 callgsubr
          855.9799957275391 1545.990005493164 rmoveto
          -442.99000549316406 -323.00999450683594 -99 callsubr
        </CharString>
        <CharString name="CR">
          -1301 endchar
        </CharString>
        <CharString name="Cacute">
          -14 callgsubr
          761 -47 callgsubr
          60 callsubr
          -118.99000549316406 rmoveto
          -442.99000549316406 -323.00999450683594 -99 callsubr
        </CharString>
        <CharString name="Ccaron">
          -14 callgsubr
          501.99000549316406 52 callgsubr
          354 -378 rmoveto
          -442.99000549316406 -323.00999450683594 -99 callsubr
        </CharString>
        <CharString name="Ccedilla">
          -134 -466 194 261.00999450683594 259 callsubr
          1106.990005493164 231.99000549316406 hstem
          60 callsubr
          282 164 162 callgsubr
          vstem
          833.9900054931641 1314 rmoveto
          157 82 -59 -27.009994506835938 36 hvcurveto
          86 250 -54 16.020004272460938 rlineto
          22 -3 callsubr
          -83 30 -142 hhcurveto
          -442.99000549316406 -323.00999450683594 -397 -523 5 hvcurveto
          3 -292 -45 callsubr
          -304.99000549316406 334.00999450683594 -39.99000549316406 -82 callsubr
          -32 0 -40 -53 callgsubr
          243 callgsubr
          rrcurveto
          -126.02000427246094 -3 -75 -62 callgsubr
          -93 hhcurveto
          122 callsubr
          -26.990005493164062 6 -13 callgsubr
          -17 hvcurveto
          -31 99 callsubr
          rlineto
          114 callgsubr
          23 61 callgsubr
          235 callgsubr
          12 callgsubr
          -14.009994506835938 75 -18 51 hvcurveto
          185.02000427246094 17.979995727539062 118.99000549316406 64 34 27.020004272460938 -43 callgsubr
          208 rcurveline
          -35 -45 -134 -64 -154 hhcurveto
          -214 -75 callsubr
          169 261 -38 callsubr
          295 -3 116 382.02000427246094 344 hhcurveto
          endchar
        </CharString>
        <CharString name="Ccircumflex">
          -14 callgsubr
          483.97999572753906 137 callgsubr
          119 73 -200.99000549316406 340 rlineto
          241 callgsubr
          hlineto
          -349 122 callgsubr
          rlineto
          372 -115 rmoveto
          -442.99000549316406 -323.00999450683594 -99 callsubr
        </CharString>
        <CharString name="Cdotaccent">
          -128 -95 callgsubr
          -2 callsubr
          1106.990005493164 231.99000549316406 107.99998474121094 82 callgsubr
          100.99000549316406 282 315 186 callgsubr
          vstem
          698 -15 callsubr
          184 callsubr
          63 -97 hhcurveto
          -95 -79 43 callsubr
          163.99000549316406 -251 rmoveto
          -443 -322.99000549316406 -99 callsubr
        </CharString>
        <CharString name="D">
          99 191 callgsubr
          hstem
          149 callsubr
          vstem
          1356.979995727539 926.9900054931641 191 callsubr
          -16 -88 hhcurveto
          -125.00999450683594 hlineto
          -95 callsubr
          -764.9900054931641 -738 14 callgsubr
        </CharString>
        <CharString name="Dcaron">
          105 191 callgsubr
          hstem
          1077.979995727539 38 callgsubr
          879.9799957275391 258 callsubr
          rmoveto
          85 callsubr
          -299.99000549316406 -206 -217 218 callgsubr
          142 callgsubr
          483 -680 191 callsubr
          -16 -88 hhcurveto
          -125.00999450683594 hlineto
          -95 callsubr
          -764.9900054931641 -738 rmoveto
          241 callsubr
          -87 callgsubr
          3 172 callgsubr
        </CharString>
        <CharString name="Dcroat">
          -89 callgsubr
        </CharString>
        <CharString name="E">
          -130 0 -77 callsubr
          107 callgsubr
          1046.990005493164 130 callsubr
          1530 -101 callsubr
        </CharString>
        <CharString name="Eacute">
          -130 0 -77 callsubr
          107 callgsubr
          1046.990005493164 vstem
          658.9799957275391 1664.979995727539 229 callsubr
          136 57 106 rlinecurve
          262 callsubr
          -277.02000427246094 83 callgsubr
          rlineto
          -362 -134.99000549316406 -101 callsubr
        </CharString>
        <CharString name="Ebreve">
          -130 0 -77 callsubr
          100.989990234375 182 hstem
          435.99000549316406 74 callgsubr
          vstem
          436 1944.990005493164 rmoveto
          36 callsubr
          226 133 callsubr
          176 157 11 vhcurveto
          1 11 22 callsubr
          -31 -5 callsubr
          294 callgsubr
          hlineto
          -98 callgsubr
          251 callsubr
          -139.02000427246094 -414.99000549316406 -101 callsubr
        </CharString>
        <CharString name="Ecaron">
          -130 0 -77 callsubr
          107 callgsubr
          1056.990005493164 vstem
          399.99000549316406 1923.990005493164 rmoveto
          142 callgsubr
          85 callsubr
          -300 -206 -217 152 callsubr
          -103.00999450683594 -394 -101 callsubr
        </CharString>
        <CharString name="Ecircumflex">
          -130 0 -77 callsubr
          107 callgsubr
          1046.990005493164 vstem
          381.99000549316406 1660.990005493164 rmoveto
          156 callgsubr
          0 callsubr
          rlineto
          89 callsubr
          13 callsubr
          -101 callsubr
        </CharString>
        <CharString name="Edieresis">
          -130 0 -77 callsubr
          134.00999450683594 82 callgsubr
          378.97999572753906 242 callsubr
          144.02000427246094 303 vstem
          378.97999572753906 64 callgsubr
          -74 callsubr
          61.99000549316406 -69.97999572753906 74 callsubr
          hhcurveto
          104 63 callsubr
          -89 49 callsubr
          -77 -93 -3 hvcurveto
          446.02000427246094 53 callsubr
          -528.0200042724609 -277 -101 callsubr
        </CharString>
        <CharString name="Edotaccent">
          -130 0 -77 callsubr
          123.989990234375 -24 callsubr
          hstemhm
          590.9900054931641 186 callgsubr
          hintmask 00000000
          hintmask 11111000
          590.9900054931641 -15 callsubr
          -57 63 -96.99000549316406 hhcurveto
          -95.00999450683594 212 callgsubr
          -294.00999450683594 -267 -101 callsubr
        </CharString>
        <CharString name="Egrave">
          -130 0 -77 callsubr
          107 callgsubr
          1046.990005493164 vstem
          398.99000549316406 250 callsubr
          57 -106 183 -136 -34 callsubr
          -36 108.00999450683594 93 rcurveline
          -277.00999450683594 175 callgsubr
          rlineto
          84 callgsubr
          -320 -101 callsubr
        </CharString>
        <CharString name="Emacron">
          -130 0 -77 callsubr
          187.989990234375 178.99000549316406 107 callgsubr
          1046.990005493164 vstem
          470 38 callsubr
          -173.02000427246094 -366.99000549316406 -101 callsubr
        </CharString>
        <CharString name="Eng">
          213 -364.99000549316406 1894.990005493164 hstem
          98 callsubr
          1322.979995727539 vstem
          1154.990005493164 1530 rmoveto
          -110 -906.0200042724609 -16 -253.99000549316406 -71 233 -398.00999450683594 927 rlineto
          -257 hlineto
          -91 callgsubr
          262 hlineto
          120 920.9900054931641 12 287 76 -254 388 -921 -34 -124.99000549316406 -34 callgsubr
          -98 -180.02000427246094 124 callgsubr
          rlinecurve
          46.02000427246094 200 callgsubr
          273.97999572753906 30 181 140.99000549316406 59 194 rlinecurve
          2 hlineto
          205.99000549316406 1530 rlineto
          89 callgsubr
          hlineto
          endchar
        </CharString>
        <CharString name="Eogonek">
          -124 111 callsubr
          282.00999450683594 -77 callsubr
          hstem
          556.9900054931641 242 callgsubr
          vstem
          1122 1314 rmoveto
          22 216 rlineto
          -841.0099945068359 hlineto
          -91 callgsubr
          722 78 callsubr
          133 13 callgsubr
          95 49 60 61 vhcurveto
          -46.02000427246094 83 callsubr
          rlineto
          -42 -56 -40 -13 -45 hhcurveto
          122 callsubr
          46 callgsubr
          22 hlineto
          25.009994506835938 -2 callsubr
          -666.0099945068359 -13 12 callgsubr
          474.00999450683594 431.99000549316406 -12 24 221 -428 -6 57 432 572 -5 rlineto
          endchar
        </CharString>
        <CharString name="Eth">
          -89 callgsubr
        </CharString>
        <CharString name="Euro">
          88 -95 callgsubr
          183 callsubr
          364.99000549316406 161.99000549316406 176.00999450683594 160.99000549316406 306.99998474121094 201 hstem
          226.97999572753906 280 vstem
          962.9900054931641 1545.990005493164 rmoveto
          -309 -252.99000549316406 -193 -315 101 callgsubr
          hvcurveto
          -198 hlineto
          -37 callgsubr
          -161 rlineto
          174 hlineto
          -11 -56 -6 -58.99000549316406 -3 -61 rrcurveto
          -179 271 callsubr
          -162 rlineto
          203 hlineto
          -282.00999450683594 97 callsubr
          142 -272.9700012207031 -31 callgsubr
          hhcurveto
          206 168 60.97999572753906 80 71 hvcurveto
          -63.02000427246094 169 rlineto
          -62 -83.99000549316406 -96.00999450683594 -58 -154.99000549316406 hhcurveto
          -179 -82 139 226 -8 callsubr
          hvcurveto
          509.00999450683594 hlineto
          17 162 rlineto
          -526.0099945068359 hlineto
          3 62 7 59 10 55 rrcurveto
          529 hlineto
          19.009994506835938 161 rlineto
          -506 hlineto
          191 70 123.99000549316406 116 171 hhcurveto
          141 106.99000549316406 -39 -28 97 callsubr
          hvcurveto
          69 214 rlineto
          23 -75 -35 callsubr
          31 202 callgsubr
          hhcurveto
          endchar
        </CharString>
        <CharString name="F">
          167 callsubr
          107 callgsubr
          1030 130 callsubr
          1530 33 callsubr
        </CharString>
        <CharString name="G">
          83 -77 callgsubr
          hstem
          92 280 vstem
          753.9900054931641 570 -29 callgsubr
          141 115 callsubr
          -36 46.99000549316406 hvcurveto
          68.00999450683594 250 -66 -104 callsubr
          endchar
        </CharString>
        <CharString name="Gbreve">
          89 -77 callgsubr
          85 182 hstem
          98 280 209.97999572753906 168.00999450683594 vstem
          899.9900054931641 1630.990005493164 rmoveto
          226 113 176 157 11 hvcurveto
          217 callgsubr
          11 0 11 11 vvcurveto
          -157.97999572753906 hlineto
          -70 -18 122 callsubr
          -5 callsubr
          294 callgsubr
          hlineto
          -98 callgsubr
          -12 -4.0099945068359375 24 callgsubr
          -169 84 -145 228 vhcurveto
          -140 -1060.990005493164 -29 callgsubr
          140.97999572753906 115 callsubr
          -36 47 70 callsubr
          250 -66.00999450683594 -104 callsubr
          endchar
        </CharString>
        <CharString name="Gcaron">
          83 -77 callgsubr
          hstem
          92 280 vstem
          951.9900054931641 26 callgsubr
          -116.02000427246094 -83 276 callgsubr
          -198 -1036.990005493164 -29 callgsubr
          141 115 callsubr
          -36 46.99000549316406 hvcurveto
          68.00999450683594 250 -66 -104 callsubr
          endchar
        </CharString>
        <CharString name="Gcircumflex">
          83 -77 callgsubr
          hstem
          92 280 vstem
          942 1793.990005493164 rmoveto
          -63 callgsubr
          156 callgsubr
          rlineto
          -188 -1223.990005493164 -29 callgsubr
          141 115 callsubr
          -36 46.99000549316406 hvcurveto
          68.00999450683594 250 -66 -104 callsubr
          endchar
        </CharString>
        <CharString name="Gcommaaccent">
          89 -77 callgsubr
          hstem
          98 280 242.99000549316406 59 callsubr
          vstem
          759.9900054931641 570 -29 callgsubr
          140.97999572753906 115 callsubr
          -36 47 70 callsubr
          250 -66.00999450683594 -104 callsubr
          -60 -613.9900054931641 rmoveto
          195 callgsubr
          -66 callsubr
          -33 92 callsubr
          -25 callgsubr
          -60 rlineto
          -25 callsubr
          128 callgsubr
        </CharString>
        <CharString name="Gdotaccent">
          89 -77 callgsubr
          108 82 callgsubr
          98 280 364.99000549316406 186 callgsubr
          vstem
          292 callgsubr
          1653.990005493164 rmoveto
          110 72 150 callsubr
          -57 63 -97.02000427246094 hhcurveto
          -94.99000549316406 185 callgsubr
          43 callsubr
          -35 callsubr
          -2 64 -65 82 hhcurveto
          -127 -1083.990005493164 -29 callgsubr
          140.97999572753906 115 callsubr
          -36 47 70 callsubr
          250 -66.00999450683594 -104 callsubr
          endchar
        </CharString>
        <CharString name="Gtilde">
          83 -77 callgsubr
          84 -9 callgsubr
          92 280 hintmask 11110100
          751.9799957275391 45 callgsubr
          hintmask 11101100
          -18 callsubr
          -43.99000549316406 hvcurveto
          98 callsubr
          -110.02000427246094 rlineto
          hintmask 11110100
          279 callgsubr
          287 callsubr
          -450.00999450683594 rmoveto
          181 141 115 callsubr
          -36 46.99000549316406 hvcurveto
          68.00999450683594 250 -66 -104 callsubr
          -96 callgsubr
          endchar
        </CharString>
        <CharString name="H">
          168 callgsubr
          1134.979995727539 1530 5 callsubr
        </CharString>
        <CharString name="Hbar">
          160 516.9900054931641 -4 callgsubr
          241.00999450683594 -4 callgsubr
          hstem
          145 callgsubr
          1550.990005493164 vstem
          1576.979995727539 1157.979995727539 rmoveto
          -202 hlineto
          50 372.02000427246094 rlineto
          -278.02000427246094 hlineto
          161 callsubr
          151 callsubr
          -568 hlineto
          50 372.02000427246094 0 callgsubr
          -50 151 callsubr
          -208 hlineto
          -19 8 callgsubr
          rlineto
          200 hlineto
          -129 -957.9900054931641 -39 callgsubr
          70 517 rlineto
          568.0200042724609 hlineto
          -70 -517 rlineto
          278 hlineto
          129 957.9900054931641 rlineto
          209 209 callgsubr
          -4 callgsubr
          rlineto
          -539 -441 rmoveto
          -567.9900054931641 hlineto
          88 callsubr
          241 rlineto
          568.0099945068359 hlineto
          -32 -241 rlineto
          endchar
        </CharString>
        <CharString name="Hcircumflex">
          168 callgsubr
          914.9799957275391 1793.990005493164 rmoveto
          0 callsubr
          113 -72 201 callsubr
          205 rlineto
          220 -263.99000549316406 5 callsubr
        </CharString>
        <CharString name="I">
          -658 235 callsubr
          -36 callgsubr
          481.99000549316406 vstem
          319 1530 -94 callsubr
          endchar
        </CharString>
        <CharString name="I.uc">
          -44 callgsubr
        </CharString>
        <CharString name="IJ">
          -18 277 callgsubr
          -36 callgsubr
          1121.990005493164 vstem
          319 1530 -44 callsubr
        </CharString>
        <CharString name="IJ_acutecomb">
          -18 292 callsubr
          2342.990005493164 hstem
          -36 callgsubr
          1351 vstem
          395 -47 callgsubr
          624.9900054931641 -0.9799957275390625 271 callgsubr
          -93.02999877929688 103 callsubr
          262 callsubr
          -277.00999450683594 -342 rlineto
          -700.9900054931641 -134 -44 callsubr
        </CharString>
        <CharString name="Iacute">
          -658 80 callgsubr
          -36 callgsubr
          725.9900054931641 vstem
          395 -47 callgsubr
          -76 -134.99000549316406 -94 callsubr
          endchar
        </CharString>
        <CharString name="Ibreve">
          -658 1630.979995727539 182 hstem
          171.99000549316406 74 callgsubr
          vstem
          171.99000549316406 233 callsubr
          222 callsubr
          226 113 176 157 11 vhcurveto
          1 11 22 callsubr
          -33 callsubr
          -113.99000549316406 -133.02000427246094 hhcurveto
          -122 -24.990005493164062 72 74 73 callsubr
          204 callgsubr
          -12 217 callsubr
          24 callgsubr
          147 -414.99000549316406 -94 callsubr
          endchar
        </CharString>
        <CharString name="Icircumflex">
          -658 80 callgsubr
          -36 callgsubr
          734 vstem
          117.99000549316406 131 callsubr
          113 -72 299.99000549316406 205 0 callsubr
          rlineto
          201 13 callsubr
          -94 callsubr
          endchar
        </CharString>
        <CharString name="Idieresis">
          -658 -51 callsubr
          -241.99000549316406 -277 -94 callsubr
          endchar
        </CharString>
        <CharString name="Idotaccent">
          -44 callgsubr
        </CharString>
        <CharString name="Igrave">
          -658 80 callgsubr
          -36 callgsubr
          481.99000549316406 vstem
          134.97999572753906 250 callsubr
          -12 callgsubr
          256 callgsubr
          -47 callsubr
          -36 108 93 rcurveline
          -277 342.02000427246094 134 callgsubr
          -157 rlineto
          184.02000427246094 -320 -94 callsubr
          endchar
        </CharString>
        <CharString name="Imacron">
          -658 1717.979995727539 177 callsubr
          -36 callgsubr
          637 vstem
          205.99000549316406 152 callgsubr
          -12 -179 rlineto
          543 hlineto
          13 179 rlineto
          -544.0099945068359 hlineto
          133 callsubr
          -366.99000549316406 -94 callsubr
          endchar
        </CharString>
        <CharString name="Iogonek">
          -658 111 callsubr
          hstem
          -142 242 callgsubr
          vstem
          202 callsubr
          hmoveto
          -52 callsubr
          hlineto
          205.99000549316406 1530 rlineto
          -275.97999572753906 hlineto
          30 callsubr
          7 78 callsubr
          132.99000549316406 131.02000427246094 111 callgsubr
          -56 -40 -13 -45 hhcurveto
          -31 46 callgsubr
          endchar
        </CharString>
        <CharString name="Itilde">
          -658 1629.979995727539 -9 callgsubr
          93.97999572753906 270 callgsubr
          93.97999572753906 226 callsubr
          43.99000549316406 49 66.00999450683594 5 callgsubr
          225.02000427246094 -262 -94 callsubr
          endchar
        </CharString>
        <CharString name="J">
          -661 277 callgsubr
          -175 766.9900054931641 vstem
          314.97999572753906 1530 -5 callgsubr
        </CharString>
        <CharString name="Jcircumflex">
          -661 292 callsubr
          2342.990005493164 hstem
          -175 1007.9799957275391 vstem
          104 1660.990005493164 rmoveto
          156 callgsubr
          -63 callgsubr
          rlineto
          210.99000549316406 13 callsubr
          -5 callgsubr
        </CharString>
        <CharString name="K">
          -10 -1 1531 107 callgsubr
          1302.990005493164 vstem
          783.9900054931641 169 callsubr
          98 callsubr
          719.0099945068359 rlineto
          -276 hlineto
          79 callgsubr
          62 91 callsubr
          328.00999450683594 230 callsubr
          -66.00999450683594 125.00999450683594 -34 callgsubr
          203 callgsubr
          -75 callsubr
          179 134 callsubr
          166 rrcurveto
          endchar
        </CharString>
        <CharString name="Kcommaaccent">
          -4 -557.9900054931641 2088 hstem
          547.9799957275391 225 vstem
          790 169 callsubr
          97 719.0099945068359 0 callgsubr
          79 callgsubr
          62.02000427246094 91 callsubr
          328 230 callsubr
          -66 125.00999450683594 -34 callgsubr
          203 callgsubr
          -90 179 134 callsubr
          166 rrcurveto
          -163 -894.9900054931641 rmoveto
          302 callsubr
          75 callgsubr
          -74 rlineto
          40 -6 30 -51 -48 vvcurveto
          -74 161 callgsubr
          26 callsubr
          91 18 115.02000427246094 115 167 vvcurveto
          101.00999450683594 -60 -34 callsubr
          -86 19 vhcurveto
          endchar
        </CharString>
        <CharString name="L">
          -278 282 callsubr
          90.99000549316406 839.9799957275391 130 callsubr
          1530 -73 callsubr
          -276 hlineto
          endchar
        </CharString>
        <CharString name="Lacute">
          234 callsubr
          98 callsubr
          839.9799957275391 vstem
          402.97999572753906 1666.990005493164 229 callsubr
          135.99000549316406 57 106 rlinecurve
          262 callsubr
          -277.02000427246094 -342 rlineto
          -100 -137 -73 callsubr
          -51 callgsubr
          hlineto
          endchar
        </CharString>
        <CharString name="Lcaron">
          234 callsubr
          852.9900054931641 223 vstem
          811.9900054931641 -6 callsubr
          -515.0099945068359 465.02000427246094 -73 callsubr
          -276 hlineto
          endchar
        </CharString>
        <CharString name="Lcommaaccent">
          234 callsubr
          403.97999572753906 59 callsubr
          vstem
          290 callsubr
          1530 -73 callsubr
          -51 callgsubr
          hlineto
          31 -1758 rmoveto
          40 -6 30 -51 -48 vvcurveto
          -74 161 callgsubr
          -40 -35 -25 vhcurveto
          -3 -62 callgsubr
          -25 callgsubr
          -60 rlineto
          91 18 115 115 167 vvcurveto
          101.00999450683594 -3 callsubr
          -34 callsubr
          -13 callsubr
          19 vhcurveto
          -139.97999572753906 -112 75 callgsubr
          -74 rlineto
          endchar
        </CharString>
        <CharString name="Ldot">
          -165 0 59 callsubr
          523 320 hstem
          783.9900054931641 202 callsubr
          130 callsubr
          1530 -73 callsubr
          -276 hlineto
          669 -462 rmoveto
          -111.99000549316406 -70 -75 callsubr
          -97 -35 callsubr
          56 -27 callgsubr
          81 112 -32 callgsubr
          74 116 69 -43 callgsubr
          61 84 callgsubr
          hvcurveto
          endchar
        </CharString>
        <CharString name="Lslash">
          -272 217 callgsubr
          225 hstem
          -41 977.9799957275391 vstem
          402.97999572753906 221.97999572753906 rmoveto
          59 438 435 165 -46 159.99000549316406 -363.99000549316406 -141 92 687 0 callgsubr
          200 callgsubr
          -799.9900054931641 -235.99000549316406 -92 46.97999572753906 -151 165 62 -74 -549.0099945068359 rlineto
          808 hlineto
          88 callsubr
          229 -534 123 callsubr
          rlineto
          endchar
        </CharString>
        <CharString name="M">
          589 1387.990005493164 142 hstem
          1534.9700012207031 210 vstem
          407.97999572753906 1530 -43 callsubr
        </CharString>
        <CharString name="N">
          149 235 callsubr
          90.99000549316406 1322.979995727539 130 callsubr
          1530 -80 callsubr
          endchar
        </CharString>
        <CharString name="NULL">
          -1301 endchar
        </CharString>
        <CharString name="Nacute">
          190 callgsubr
          793.9900054931641 1664.979995727539 rmoveto
          108 -93 -47 callsubr
          158 callgsubr
          141 callsubr
          rlineto
          -491 -134.99000549316406 -81 callgsubr
          endchar
        </CharString>
        <CharString name="Ncaron">
          190 callgsubr
          535 -38 callgsubr
          178 207 callgsubr
          183 callgsubr
          152 callsubr
          -232.02000427246094 -394 -81 callgsubr
          endchar
        </CharString>
        <CharString name="Ncommaaccent">
          155 -560 2090 hstem
          587.9799957275391 225 vstem
          290 callsubr
          1530 -81 callgsubr
          215 -1759.990005493164 rmoveto
          40.02000427246094 -6 29.990005493164062 -66 callgsubr
          -33 26 callsubr
          91.00999450683594 18 115 17 callgsubr
        </CharString>
        <CharString name="Ntilde">
          155 1629.979995727539 -9 callgsubr
          98 callsubr
          1322.979995727539 hintmask 00000000
          hintmask 01100000
          492.99000549316406 173 callsubr
          44 49 165 callsubr
          -1 rlinecurve
          hintmask 10100000
          90 callsubr
          -78 hhcurveto
          hintmask 01100000
          -18 callsubr
          -44 hvcurveto
          -190 -262 -81 callgsubr
          endchar
        </CharString>
        <CharString name="O">
          -73 callgsubr
          87 593.9799957275391 -104 callgsubr
        </CharString>
        <CharString name="OE">
          858 -95 callgsubr
          208.97999572753906 -192.989990234375 -77 callsubr
          -195.010009765625 211 hstemhm
          71 callgsubr
          hintmask 01110100
          2101.990005493164 1314 rmoveto
          22 216 rlineto
          -840.9900054931641 hlineto
          -33 -247 rlineto
          hintmask 10101100
          158 185 callgsubr
          182 callsubr
          105 -211 296 callsubr
          -526 5.0200042724609375 hvcurveto
          -333.99000549316406 -97 callgsubr
          172 -275.97999572753906 347.00999450683594 hhcurveto
          205.99000549316406 170 91.97000122070312 151 123 hvcurveto
          hintmask 01110100
          -31 -226.97999572753906 rlineto
          946.0099945068359 hlineto
          25.009994506835938 -2 callsubr
          -666.0099945068359 -13 63 474.00999450683594 432 -12 24 221 -428.00999450683594 -6 -12 callgsubr
          432 571.9900054931641 -5 rlineto
          hintmask 10101100
          -1462.990005493164 -1121.020004272461 rmoveto
          -176 -87 120.02000427246094 309 -4 hvcurveto
          343 -3 161 369.99000549316406 253 hhcurveto
          176 88 -117 -309 -88 callsubr
          -61 callsubr
          endchar
        </CharString>
        <CharString name="Oacute">
          -73 callgsubr
          775.9900054931641 1664.979995727539 rmoveto
          36 callgsubr
          262 callsubr
          -277.00999450683594 83 callgsubr
          rlineto
          -688.9900054931641 -1071 -104 callgsubr
        </CharString>
        <CharString name="Obreve">
          85 -95 callgsubr
          208.97999572753906 1141.990005493164 211 85 182 hstem
          71 callgsubr
          180 74 callgsubr
          329.99998474121094 38 callgsubr
          552 1944.990005493164 rmoveto
          36 callsubr
          226 133 callsubr
          176 157 11 vhcurveto
          1 11 22 callsubr
          122 callsubr
          -5 callsubr
          -161 hlineto
          -98 callgsubr
          251 callsubr
          -465 -1351 -104 callgsubr
        </CharString>
        <CharString name="Ocircumflex">
          -73 callgsubr
          499 1660.990005493164 rmoveto
          156 callgsubr
          -63 callgsubr
          rlineto
          -412 -1067 -104 callgsubr
        </CharString>
        <CharString name="Odieresis">
          85 -95 callgsubr
          208.97999572753906 1141.990005493164 211 118.02000427246094 -24 callsubr
          hstemhm
          71 callgsubr
          122.989990234375 302.02000427246094 143.99000549316406 303 -194.010009765625 -69 callgsubr
          hintmask 11111010
          494.97999572753906 64 callgsubr
          -74 callsubr
          181 callsubr
          74 callsubr
          hhcurveto
          157 callsubr
          2 158 callsubr
          -54 29 callgsubr
          -34 callgsubr
          -72 -77 -93 -3 hvcurveto
          hintmask 11111100
          446.00999450683594 53 callsubr
          -854 -1213.009994506836 -76 callsubr
          hintmask 11111010
          47 callgsubr
          143 callsubr
          521 -4 hvcurveto
          334 -98 callgsubr
          -171 278 -343 hhcurveto
          hintmask 11111100
          -442 -294.00999450683594 -426 -526 5.0200042724609375 hvcurveto
          hintmask 11111010
          962.9900054931641 315 rmoveto
          -61 callsubr
          -176 -87 120.02000427246094 309 -4 hvcurveto
          343 -3 161 369.99000549316406 253 hhcurveto
          176 88 -117 -309 -88 callsubr
          endchar
        </CharString>
        <CharString name="Ograve">
          -73 callgsubr
          515.9900054931641 250 callsubr
          57 -106 183 -136 -34 callsubr
          -36 246 callsubr
          93 rcurveline
          -277.02000427246094 175 callgsubr
          rlineto
          -429 -1256.020004272461 -104 callgsubr
        </CharString>
        <CharString name="Ohungarumlaut">
          -73 callgsubr
          514.9900054931641 142 callsubr
          196.02000427246094 164 52 116 rlinecurve
          -158 130 -298 32 callgsubr
          12 callgsubr
          116 rlinecurve
          -157 131 -299 151 callsubr
          -882 -1041 -104 callgsubr
        </CharString>
        <CharString name="Omacron">
          85 -95 callgsubr
          208.97999572753906 1141.990005493164 211 172 178.99000549316406 -50 callgsubr
          587 38 callsubr
          -500 -1303 -104 callgsubr
        </CharString>
        <CharString name="Oslash">
          90 callgsubr
          1334.990005493164 934.9900054931641 -91 callsubr
        </CharString>
        <CharString name="Oslashacute">
          90 callgsubr
          1171.990005493164 250 callsubr
          262 callsubr
          -277.00999450683594 83 callgsubr
          36 callgsubr
          163 -915 -91 callsubr
        </CharString>
        <CharString name="Otilde">
          85 -95 callgsubr
          208.97999572753906 1141.990005493164 211 84 -9 callgsubr
          71 callgsubr
          677.989990234375 -69 callgsubr
          hintmask 00000000
          hintmask 11011100
          473.99000549316406 173 callsubr
          44.02000427246094 49 66 -1 rlinecurve
          hintmask 11101100
          -2 122 11 -140 180 253 callsubr
          136 callgsubr
          117 rlineto
          -50 258 callgsubr
          -39 -60 -35 callsubr
          hhcurveto
          hintmask 11011100
          -18 callsubr
          -44 hvcurveto
          hintmask 11101100
          -386.99000549316406 -1198.020004272461 -104 callgsubr
        </CharString>
        <CharString name="P">
          -62 248 callsubr
          hstem
          966.9799957275391 275 130 callsubr
          1530 72 callsubr
          171 callgsubr
          -102.99000549316406 -16 -88 hhcurveto
          -136 hlineto
          9 callsubr
        </CharString>
        <CharString name="Q">
          86 -390 230.99000549316406 1493.989990234375 211 hstem
          71 callgsubr
          152.88999938964844 192.10000610351562 332.99998474121094 38 callgsubr
          716.9799957275391 -7 rmoveto
          383 64 239 400 -4 477 rrcurveto
          334 -98 callgsubr
          -171 278 -343 296 callsubr
          -526 5.0200042724609375 hvcurveto
          -97 callgsubr
          -309.97999572753906 148 -260.02000427246094 201 callsubr
          -35.97999572753906 rrcurveto
          -280 115 callsubr
          208 -98 212 hhcurveto
          120 173 35 45 54 hvcurveto
          244 callsubr
          vlineto
          146 callgsubr
          -64 84 callgsubr
          -7 -86 hhcurveto
          -145 -124.99000549316406 112 callsubr
          138 272 callsubr
          -344.99000549316406 629 rmoveto
          343 -3 161 369.99000549316406 253 hhcurveto
          176 88 -117 -309 -88 callsubr
          -61 callsubr
          -176 -87 120.02000427246094 309 -4 hvcurveto
          endchar
        </CharString>
        <CharString name="R">
          6 42 callgsubr
          975.9900054931641 280 vstem
          913.9799957275391 659.9900054931641 -79 callgsubr
        </CharString>
        <CharString name="Racute">
          6 42 callgsubr
          975.9900054931641 280 vstem
          1151 -22 callsubr
          -237.02000427246094 -1190.009994506836 -79 callgsubr
        </CharString>
        <CharString name="Rcaron">
          12 42 callgsubr
          981.9900054931641 280 vstem
          858.9900054931641 26 callgsubr
          -116.02000427246094 -83 276 callgsubr
          124 callsubr
          -947 -78 callgsubr
          endchar
        </CharString>
        <CharString name="Rcommaaccent">
          12 42 callgsubr
          549.9900054931641 59 callsubr
          207.00999450683594 280 vstem
          919.9799957275391 659.9900054931641 -78 callgsubr
          -64 -870.9700012207031 rmoveto
          302 callsubr
          -9 -74 rlineto
          -81 callsubr
          endchar
        </CharString>
        <CharString name="S">
          -39 callsubr
          99.97999572753906 302 -100 callgsubr
        </CharString>
        <CharString name="Sacute">
          -39 callsubr
          600.9900054931641 1664.979995727539 rmoveto
          36 callgsubr
          262 callsubr
          -277.00999450683594 83 callgsubr
          rlineto
          -501 -1362.990005493164 -100 callgsubr
        </CharString>
        <CharString name="Scaron">
          -39 callsubr
          342 1923.990005493164 rmoveto
          142 callgsubr
          55 callgsubr
          -116 -83 rlineto
          -242.02000427246094 -1622 -100 callgsubr
        </CharString>
        <CharString name="Scedilla">
          -250 -468 194 258.00999450683594 218.99000549316406 1127.990005493164 214.99000549316406 hstemhm
          175.97999572753906 268 -71.989990234375 162 callgsubr
          84.99998474121094 284.02000427246094 hintmask 11110100
          655.9900054931641 861.9799957275391 rmoveto
          -140 101.00999450683594 -77 69 5 128 rrcurveto
          121 4.0200042724609375 104.97999572753906 50.02000427246094 124 hhcurveto
          88 120 -30 -56 55 hvcurveto
          87 215.99000549316406 rlineto
          37 -51 -120.00999450683594 48 -181 hhcurveto
          -296 -205.99000549316406 -164 -269 97 callgsubr
          -204 146 -135 83 callsubr
          -97 155.02000427246094 -109 9 callgsubr
          -71 -1 -100 rrcurveto
          99 callgsubr
          -53 callgsubr
          -105 -64 -155.02000427246094 hhcurveto
          -113.99000549316406 -139 53.99000549316406 45.02000427246094 -50.02000427246094 hvcurveto
          -88 -224 rlineto
          hintmask 11101100
          43 -35 162 -53.97999572753906 154 -5 -82 callsubr
          122 callsubr
          0 -39 -53 callgsubr
          -36 rrcurveto
          -126 -3 76 callgsubr
          53 hhcurveto
          183.99000549316406 105 87 222 callgsubr
          -75 callgsubr
          -15 81 146 callgsubr
          50.02000427246094 hvcurveto
          243 41.97999572753906 163 148 -74 callsubr
          254 rrcurveto
          hintmask 11110100
          -2 199 -158 125.99000549316406 -132 97 rrcurveto
          endchar
        </CharString>
        <CharString name="Scircumflex">
          -39 callsubr
          323.99000549316406 1660.990005493164 rmoveto
          156 callgsubr
          197 8 callgsubr
          119 73 -201 249 callsubr
          -224 -1358.990005493164 -100 callgsubr
        </CharString>
        <CharString name="Scommaaccent">
          -244 -95 callgsubr
          218.99000549316406 1127.990005493164 214.99000549316406 hstemhm
          163 callsubr
          268 -72 59 callsubr
          66.99998474121094 284.02000427246094 hintmask 11101000
          105.97999572753906 302 rmoveto
          -88 -224 rlineto
          -37 45.02000427246094 175 -56.970001220703125 161 hhcurveto
          -64 callsubr
          -114 -139 53.99000549316406 45.02000427246094 -50.02000427246094 hvcurveto
          hintmask 11011000
          202.02000427246094 -531.9900054931641 rmoveto
          -66 callsubr
          -33 26 callsubr
          91.02000427246094 16 callsubr
          195 callgsubr
          endchar
        </CharString>
        <CharString name="T">
          -163 301 callgsubr
          hstem
          132.99000549316406 1088 vstem
          525.9900054931641 1324.990005493164 -54 callsubr
          endchar
        </CharString>
        <CharString name="Tbar">
          -157 291 callsubr
          183 callsubr
          450.5299835205078 248 callgsubr
          1196.990005493164 1314 rmoveto
          30 216 rlineto
          -1055 hlineto
          105 callgsubr
          -60.99000549316406 -456 rlineto
          -252 hlineto
          -23 -190 rlineto
          249 hlineto
          -90.99000549316406 -678.9900054931641 rlineto
          279 hlineto
          -25 callsubr
          291 callsubr
          rlineto
          261 hlineto
          23 190 rlineto
          -257.97999572753906 hlineto
          124 callsubr
          456 386 -11 rlineto
          endchar
        </CharString>
        <CharString name="Tcaron">
          -157 1319.509994506836 248 callgsubr
          384.97999572753906 51 callsubr
          147 -599 -54 callsubr
          endchar
        </CharString>
        <CharString name="Thorn">
          -43 263.97999572753906 211 620 198 hstem
          938.9799957275391 274 vstem
          1212.990005493164 884.9799957275391 rmoveto
          273 -2 -179 135 -316 hhcurveto
          -62 -58 217 callsubr
          -5 -53 hvcurveto
          33.02000427246094 246 rlineto
          -279.02000427246094 hlineto
          -203.99000549316406 -1530 rlineto
          279.97999572753906 hlineto
          36 274.97999572753906 rlineto
          -98 callgsubr
          97 callsubr
          64 -8 160 callgsubr
          hhcurveto
          394 245 260 361 -4 hvcurveto
          -274 -23.990005493164062 rmoveto
          123 callsubr
          -244.02000427246094 -110 -140.99000549316406 -237 -1 -48.99000549316406 -1 124 callgsubr
          6 -30 198 callsubr
          79.00999450683594 594.9900054931641 rcurveline
          -53 callgsubr
          vlineto
          9 43.99000549316406 -52 callsubr
          100 callsubr
          40 hhcurveto
          -4 callgsubr
          77 215 callsubr
          -149 -6 hvcurveto
          endchar
        </CharString>
        <CharString name="U">
          -21 callgsubr
          143.99000549316406 594.9799957275391 -107 callgsubr
        </CharString>
        <CharString name="Uacute">
          -21 callgsubr
          758.9900054931641 174 callsubr
          96.02000427246094 158 callgsubr
          141 callsubr
          rlineto
          -615 -1070 -107 callgsubr
        </CharString>
        <CharString name="Ubreve">
          -19 callgsubr
          1430.990005493164 182 hstem
          65 callgsubr
          122.989990234375 168.00999450683594 vstem
          535.9799957275391 233 callsubr
          228 226 -36 callgsubr
          176 157 11.020004272460938 vhcurveto
          184 callgsubr
          11 0 11 11 vvcurveto
          -157.99000549316406 hlineto
          -70 -18 122 callsubr
          -5 callsubr
          294 callgsubr
          hlineto
          -98 callgsubr
          -12 -4.0200042724609375 24 callgsubr
          -391.99000549316406 -1350 -107 callgsubr
        </CharString>
        <CharString name="Ucircumflex">
          -21 callgsubr
          482 263 callsubr
          300.02000427246094 205 -63 callgsubr
          rlineto
          -338 -1066 -107 callgsubr
        </CharString>
        <CharString name="Udieresis">
          -19 callgsubr
          1464.010009765625 82 callgsubr
          65 callgsubr
          65.989990234375 242 callsubr
          144.02000427246094 290 callsubr
          vstem
          478.99000549316406 64 callgsubr
          -74 callsubr
          181 callsubr
          208 callsubr
          104.02000427246094 63 callsubr
          -89.00999450683594 49 callsubr
          -77 -93 -3 hvcurveto
          446.00999450683594 hmoveto
          -74 -1 98 callgsubr
          -69 72 hhcurveto
          137 callsubr
          -86 hhcurveto
          -88 -74.02000427246094 -77 -93 119 callgsubr
          -781 -1212.009994506836 -107 callgsubr
        </CharString>
        <CharString name="Ugrave">
          -21 callgsubr
          499 250 callsubr
          57 256 callgsubr
          96.02000427246094 -36 -45 callsubr
          93 rcurveline
          -277 342.02000427246094 244 callgsubr
          -157 rlineto
          -355 -1255.020004272461 -107 callgsubr
        </CharString>
        <CharString name="Uhungarumlaut">
          -21 callgsubr
          497.99000549316406 142 callsubr
          196 164 52.02000427246094 116 rlinecurve
          -158 130 -298 32 callgsubr
          12 callgsubr
          116 rlinecurve
          -157.02000427246094 131 -298.97999572753906 151 callsubr
          -808 -1040 -107 callgsubr
        </CharString>
        <CharString name="Umacron">
          -19 callgsubr
          1517.990005493164 178.99000549316406 79 callsubr
          570 38 callsubr
          -426 -1302 -107 callgsubr
        </CharString>
        <CharString name="Uogonek">
          107 111 callsubr
          266.0199890136719 215.97999572753906 hstemhm
          83 callsubr
          281.97999572753906 -12 callgsubr
          236.99000549316406 hintmask 11100000
          1113.990005493164 1530 rmoveto
          -119.00999450683594 -891 rlineto
          -326 -44.99000549316406 -103 -113.00999450683594 -188 hhcurveto
          -159.99000549316406 -77 71 171.99000549316406 204 callgsubr
          hvcurveto
          -12 callgsubr
          67 callsubr
          62 -13 callgsubr
          -32 callgsubr
          vhcurveto
          120.00999450683594 895.0200042724609 0 callgsubr
          -124.99000549316406 -935.0200042724609 123 callsubr
          -59 -6 -53.99000549316406 1 -52 rlinecurve
          -51 callgsubr
          -97 callgsubr
          154 -169.97999572753906 323.99000549316406 hhcurveto
          33.02000427246094 88 callsubr
          1 -97 callgsubr
          31 hvcurveto
          hintmask 11110000
          162 callsubr
          -51 187 callgsubr
          -111 -125.00999450683594 141 callgsubr
          143 callgsubr
          95 49 60 62 vhcurveto
          -46 83 callsubr
          rlineto
          -42 -56 -40 -13 -46 hhcurveto
          -31 -34 13 56 52 112 -36 callgsubr
          94 113 callsubr
          hvcurveto
          192 80.02000427246094 110.99000549316406 179 43 317.99000549316406 122 918.0200042724609 rcurveline
          hintmask 11100000
          -273 hlineto
          endchar
        </CharString>
        <CharString name="Uring">
          -19 callgsubr
          1369.000015258789 123 292.989990234375 122 hstem
          65 callgsubr
          110 74 callgsubr
          322.99998474121094 169 vstem
          523 1817.990005493164 rmoveto
          202 callgsubr
          118.99000549316406 269 callgsubr
          -118.99000549316406 86 -172 -158.99000549316406 -210 -64 callgsubr
          -210 vhcurveto
          490.99000549316406 35 rmoveto
          13 callsubr
          -88 -30 -34 callgsubr
          -35 callsubr
          115 callsubr
          59 75.97999572753906 122.02000427246094 98 callsubr
          35.99000549316406 83 80 63 -27 callgsubr
          -77 vhcurveto
          -870 -1258 -107 callgsubr
        </CharString>
        <CharString name="Utilde">
          -19 callgsubr
          1429.990005493164 -9 callgsubr
          65 callgsubr
          hintmask 00000000
          hintmask 10110000
          457.99000549316406 173 callsubr
          44.02000427246094 281 callsubr
          rlinecurve
          hintmask 11010000
          90 callsubr
          -35 callsubr
          hhcurveto
          hintmask 10110000
          -18 callsubr
          -44 hvcurveto
          hintmask 11010000
          -314 -1197.020004272461 -107 callgsubr
        </CharString>
        <CharString name="V">
          -100 235 callsubr
          116 1226.990005493164 vstem
          116 1530 rmoveto
          238 -1530 rlineto
          310.99000549316406 hlineto
          678.0099945068359 1530 rlineto
          -292 hlineto
          -416.00999450683594 -1040.020004272461 -82 -241.99000549316406 -21 257 callgsubr
          -140 1040.020004272461 rlineto
          228 callgsubr
        </CharString>
        <CharString name="W">
          487 -4.9900054931640625 1534.990005493164 hstem
          111.97999572753906 1833 vstem
          1663 1530 -55 callsubr
        </CharString>
        <CharString name="Wacute">
          169 callgsubr
          1409.990005493164 250 callsubr
          262 callsubr
          -277.00999450683594 83 callgsubr
          36 callgsubr
          259.00999450683594 -320 -86 callgsubr
        </CharString>
        <CharString name="Wcircumflex">
          487 -4.9900054931640625 2011.990005493164 hstem
          111.97999572753906 1833 vstem
          1095.990005493164 1793.990005493164 rmoveto
          0 callsubr
          133 callsubr
          -72 201 callsubr
          205 rlineto
          567.0099945068359 -263.99000549316406 -55 callsubr
        </CharString>
        <CharString name="Wdieresis">
          493 1664 82 callgsubr
          684.9900054931641 242 callsubr
          143.99998474121094 303 vstem
          816.9900054931641 1664 rmoveto
          157 callsubr
          2 129 callgsubr
          -89 241 callsubr
          -77 284 callsubr
          264 callsubr
          72 hhcurveto
          445.00999450683594 hmoveto
          -28 callgsubr
          -74 -1 60 -69 72 hhcurveto
          407 -134 -86 callgsubr
        </CharString>
        <CharString name="Wgrave">
          169 callgsubr
          1041.979995727539 1571.979995727539 271 callgsubr
          93 -277.00999450683594 175 callgsubr
          57 -106 183 -136 -34 callsubr
          -36 rlinecurve
          627.0200042724609 188 callgsubr
          -86 callgsubr
        </CharString>
        <CharString name="X">
          -100 -1 1531 hstem
          -64 callgsubr
          1400.9700012207031 vstem
          482 800.9900054931641 rmoveto
          -560.9900054931641 -800.9900054931641 rlineto
          317.9700012207031 hlineto
          358.00999450683594 575 225 -576 307 1 -347 744 540 786 rlineto
          -304.97999572753906 hlineto
          -353.02000427246094 -545.0099945068359 -203 545.0099945068359 rlineto
          -298.97999572753906 hlineto
          320 -729 rlineto
          endchar
        </CharString>
        <CharString name="Y">
          -177 235 callsubr
          113 callsubr
          1214.009994506836 vstem
          143 callsubr
          589.9900054931641 -96 callsubr
        </CharString>
        <CharString name="Yacute">
          88 callgsubr
          616 -47 callgsubr
          -187 -1075 -96 callsubr
        </CharString>
        <CharString name="Ycircumflex">
          88 callgsubr
          338.97999572753906 137 callgsubr
          61 callgsubr
          73 -201.02000427246094 249 callsubr
          -25 callgsubr
          -1071 -96 callsubr
        </CharString>
        <CharString name="Ydieresis">
          -177 1664 82 callgsubr
          335.99000549316406 242 callsubr
          143.99998474121094 303 vstem
          335.99000549316406 1806.990005493164 rmoveto
          264 callsubr
          72 hhcurveto
          157 callsubr
          2 129 callgsubr
          -89 241 callsubr
          -77 284 callsubr
          446 hmoveto
          -74 -1 60 -69 72 hhcurveto
          -28 callgsubr
          -353 -1217 -96 callsubr
        </CharString>
        <CharString name="Ygrave">
          88 callgsubr
          355.97999572753906 41 callgsubr
          73.00999450683594 -1260.009994506836 -96 callsubr
        </CharString>
        <CharString name="Z">
          0 21 callgsubr
          hstem
          -26.990005493164062 1246.979995727539 vstem
          -26.990005493164062 88.99000549316406 -84 callsubr
        </CharString>
        <CharString name="Zacute">
          0 21 callgsubr
          hstem
          -26.990005493164062 1246.979995727539 vstem
          291 callsubr
          63 callgsubr
          -705.9799957275391 -1576 -84 callsubr
        </CharString>
        <CharString name="Zcaron">
          0 21 callgsubr
          hstem
          -26.990005493164062 1246.979995727539 vstem
          419.97999572753906 51 callsubr
          -446.9700012207031 -1835 -84 callsubr
        </CharString>
        <CharString name="Zdotaccent">
          0 21 callgsubr
          123.99000549316406 -24 callsubr
          hstemhm
          610.9700012207031 185 callsubr
          286 callgsubr
          610.9700012207031 -42 callgsubr
          2 184 callsubr
          63 -97 hhcurveto
          -95 -64 callgsubr
          -60 callsubr
          -93 204 callgsubr
          hvcurveto
          -637.9700012207031 -1708.009994506836 -84 callsubr
        </CharString>
        <CharString name="a">
          -63 callsubr
          hstem
          80 callsubr
          vstem
          983 1117 -103 callsubr
        </CharString>
        <CharString name="aacute">
          -63 callsubr
          hstem
          80 callsubr
          vstem
          1131.990005493164 1576.979995727539 rmoveto
          207 callsubr
          104 -85 120.00999450683594 46 240.99000549316406 227 36 68 rlinecurve
          -386.00999450683594 -420.99000549316406 -90 callsubr
        </CharString>
        <CharString name="abreve">
          -63 callsubr
          146.010009765625 163 callsubr
          hstem
          80 callsubr
          90.010009765625 74 callgsubr
          vstem
          764.9900054931641 1302 rmoveto
          226 113 127 callgsubr
          hvcurveto
          1 11.020004272460938 22 callsubr
          122 callsubr
          148 callsubr
          -25 72 74 -19 callsubr
          hvcurveto
          -1 112 callsubr
          261 callsubr
          -161 hlineto
          -98 callgsubr
          261 callgsubr
          36 callsubr
          vhcurveto
          218 -185 -103 callsubr
        </CharString>
        <CharString name="acircumflex">
          -63 callsubr
          hstem
          80 callsubr
          vstem
          791.9799957275391 1438.990005493164 rmoveto
          196.02000427246094 -219 123.99000549316406 68 -200.99000549316406 374 -16 callsubr
          -374 213 callgsubr
          rlineto
          191.02000427246094 -321.99000549316406 -103 callsubr
        </CharString>
        <CharString name="acute">
          -739 278 callgsubr
          33.99000549316406 501 vstem
          34 267 callsubr
          120 35 callsubr
          -180.02000427246094 214 callsubr
          endchar
        </CharString>
        <CharString name="acute.cap">
          -772 1571.979995727539 435.02000427246094 hstem
          165 callgsubr
          444 vstem
          165 callgsubr
          1664.979995727539 rmoveto
          39 callsubr
          -167.02000427246094 104 callgsubr
          endchar
        </CharString>
        <CharString name="adieresis">
          -63 callsubr
          209.010009765625 -24 callsubr
          hstemhm
          80 callsubr
          39 303 144.010009765625 303 hintmask 00000000
          hintmask 11111100
          534 1364.990005493164 153 callgsubr
          -77 -92 -2 hvcurveto
          -74 -2.9900054931640625 256 callsubr
          478 313 rmoveto
          -93 205 callgsubr
          -77 -92 -38 callsubr
          -74 -3 61 -70 -32 callgsubr
          hhcurveto
          105 64 81 94 3.0200042724609375 158 callsubr
          -56 96 callsubr
          -266.02000427246094 -522 rmoveto
          hintmask 11110000
          -32 callsubr
          91.00999450683594 46 callsubr
          159.99000549316406 117 120.97000122070312 113 65 94 callgsubr
          -217.99000549316406 rlineto
          245.99000549316406 -21 callsubr
          hintmask 11111100
          47 callsubr
          -63.02000427246094 -97 64 callsubr
          hintmask 11110000
          -267 -976 rmoveto
          -74 -42 81 175.99000549316406 239 109 304 246 41 40 -4 -10.009994506835938 35 hvcurveto
          -68 -479.99000549316406 rlineto
          -126 -55 -111 -180 -121 hhcurveto
          endchar
        </CharString>
        <CharString name="ae">
          68 callgsubr
          1175.979995727539 181.99000549316406 -90 callgsubr
        </CharString>
        <CharString name="aeacute">
          68 callgsubr
          1340.990005493164 1574.990005493164 rmoveto
          -180 169 -321 -425 -67 callsubr
          -165 -1393 -90 callgsubr
        </CharString>
        <CharString name="agrave">
          -63 callsubr
          hstem
          80 callsubr
          vstem
          724.9900054931641 1235.990005493164 rmoveto
          104 2 callsubr
          -311 425.99000549316406 -180.99000549316406 -169 50 193 callgsubr
          258 -118.99000549316406 -103 callsubr
        </CharString>
        <CharString name="amacron">
          -63 callsubr
          275 callgsubr
          80 callsubr
          vstem
          1027.990005493164 1595.990005493164 rmoveto
          -543 hlineto
          -11 234 callgsubr
          11 179 rlineto
          -45 -478.99000549316406 -103 callsubr
        </CharString>
        <CharString name="ampersand">
          249 -18 169 -168 201 callgsubr
          468 190.99000549316406 539.9999847412109 176 hstemhm
          165 callgsubr
          275 -26.010009765625 254.99000549316406 324.02000427246094 254.99000549316406 -31.000015258789062 253.99000549316406 hintmask 01111010
          1518 828.9900054931641 rmoveto
          hintmask 01111001
          -367 1 rlineto
          -89 -44 -19 114 callsubr
          -19 hvcurveto
          -10 241 callgsubr
          23 13 35.99000549316406 9.020004272460938 43 100 callsubr
          rlinecurve
          6 -29 5 -35 -41 vvcurveto
          -89 -28 49 callsubr
          -47 121 callsubr
          vhcurveto
          -129 120.02000427246094 -109 151 -91 150 rrcurveto
          hintmask 01110110
          211.99000549316406 61 callgsubr
          223 134 249 vvcurveto
          135.99000549316406 -101 172 -279 -281 -173 -187 -241 136 callgsubr
          38 -130 46 -104 vhcurveto
          hintmask 01111010
          -177 -100 -156 -117.99000549316406 -199 vvcurveto
          -272 252 -109.99000549316406 145 callsubr
          288 callgsubr
          117.99000549316406 4 callgsubr
          37.99000549316406 101.00999450683594 vhcurveto
          hintmask 10111001
          -40.97999572753906 80 100 -18 70 hhcurveto
          54 100.99000549316406 5 13.979995727539062 46 hvcurveto
          31 150.02000427246094 rlineto
          -19 -22 0 184 callgsubr
          -16 hvcurveto
          -81 2 -60 12 -54 23 rrcurveto
          -47 callsubr
          98 133 callgsubr
          134 165 vvcurveto
          19 -53 callgsubr
          17.990005493164062 -2 16.020004272460938 vhcurveto
          151 hlineto
          hintmask 01111010
          112 callsubr
          183 callsubr
          rlineto
          hintmask 01110110
          -964.0200042724609 311.00999450683594 rmoveto
          124.99000549316406 -52 callsubr
          105 109 100 48 -64 -99 -135 -121.02000427246094 -88 -150 -82 vhcurveto
          -62 callgsubr
          61 -27.020004272460938 86 91.00999450683594 vvcurveto
          hintmask 01111010
          -228.99000549316406 -758 rmoveto
          91 64 70 -25 callsubr
          64 vhcurveto
          -25 callgsubr
          -150 74 -117 156 -153 rrcurveto
          -11 -48 161 callsubr
          -5 -53 hhcurveto
          -169 -154.99000549316406 48 163 hvcurveto
          endchar
        </CharString>
        <CharString name="aogonek">
          -80 111 callsubr
          266.0199890136719 -53 callsubr
          799.9799957275391 176 hstem
          66 callsubr
          287 137.989990234375 242 callgsubr
          vstem
          811.9900054931641 -282 rmoveto
          122 callsubr
          46 callgsubr
          198 callsubr
          -21 callsubr
          47 callsubr
          -63 -96.99000549316406 64 callsubr
          -32 callsubr
          91 3 callgsubr
          232.02000427246094 159.99000549316406 117 120.97000122070312 113 65 hvcurveto
          -14 -217.99000549316406 rlineto
          36 hlineto
          -87 -43 -175 -115 -141 19 callsubr
          121 callsubr
          -40 -13 -45 hhcurveto
          -325 462 rmoveto
          -74 -42 81 175.99000549316406 239 108.99000549316406 304 246 41 40 -4 -10.009994506835938 35 hvcurveto
          -68.00999450683594 -479.99000549316406 rlineto
          -126 -27 callgsubr
          -111 -180 -121 hhcurveto
          endchar
        </CharString>
        <CharString name="approxequal">
          -238 260.99000549316406 215 callgsubr
          208.99000549316406 85.02000427246094 215 callgsubr
          208.99000549316406 hstemhm
          24.990005493164062 1054 hintmask 01011000
          245 callgsubr
          902.9799957275391 138 callgsubr
          3 callsubr
          hhcurveto
          hintmask 01101000
          148 205 callsubr
          -78 171.99000549316406 -173 hhcurveto
          hintmask 01011000
          -148 -147 -116 -99 188 callsubr
          hvcurveto
          -60 -471 138 callgsubr
          244 callsubr
          hhcurveto
          hintmask 10011000
          199 callsubr
          205 callsubr
          -35 callsubr
          171.99000549316406 -173 hhcurveto
          hintmask 01011000
          -148 187 callgsubr
          -116 -99 -32 hvcurveto
          endchar
        </CharString>
        <CharString name="aring">
          -63 callsubr
          99.010009765625 124.99000549316406 293.00999450683594 124 hstem
          80 callsubr
          108.010009765625 123 callgsubr
          323.99998474121094 74 callgsubr
          vstem
          770.9900054931641 1254.990005493164 rmoveto
          180 179 94 197 164.99000549316406 -117.99000549316406 86.02000427246094 -173.02000427246094 -158 -209.99000549316406 -81 -210 294 callgsubr
          -36 callgsubr
          1 callsubr
          187 hvcurveto
          48 418 rmoveto
          80 63 -55 -60 callsubr
          -131 -88 -30 1 callsubr
          -78 -68 59 76 122 97 36 2 callsubr
          hvcurveto
          164 -556 -103 callsubr
        </CharString>
        <CharString name="asciicircum">
          63 509.99000549316406 1020.9799957275391 hstem
          150.99000549316406 1014.9799957275391 vstem
          671.9900054931641 1530.979995727539 rmoveto
          -520.9900054931641 -1020.9900054931641 rlineto
          225 hlineto
          388 739 181 -739 rlineto
          221 hlineto
          -262 1020.9900054931641 rlineto
          -232 hlineto
          endchar
        </CharString>
        <CharString name="asciitilde">
          -164 695.9900054931641 215 callgsubr
          209.00999450683594 hstemhm
          104 993.9900054931641 hintmask 01100000
          104 866.9799957275391 rmoveto
          110 -24 callgsubr
          rlineto
          60 108 callsubr
          12 callgsubr
          52.99000549316406 81 134 63 99 callsubr
          3 callsubr
          hhcurveto
          hintmask 10100000
          148 145 110 110 29 hvcurveto
          -103.02000427246094 106 rlineto
          -70 -47.97999572753906 -63 -42 -81.02000427246094 -121 8 callsubr
          172 -173.02000427246094 hhcurveto
          hintmask 01100000
          286 callsubr
          -147 -116.02000427246094 -99 188 callsubr
          hvcurveto
          endchar
        </CharString>
        <CharString name="asterisk">
          65 612.9799957275391 1074.009994506836 hstem
          192 1077.979995727539 vstem
          192 975.9900054931641 rmoveto
          92 -189 269.97999572753906 188 116 -25 callsubr
          -35 -140.99000549316406 -68 -311 221 -1 -7 312.00999450683594 -11 140.99000549316406 189 callgsubr
          -90.99000549316406 228.99000549316406 -186 133 187 -277 123 -124.99000549316406 165 callgsubr
          134.97999572753906 51 303 125.00999450683594 -87 201 callgsubr
          -274 -187.99000549316406 -121 -88 38 139 68 311.00999450683594 rlineto
          -215 hlineto
          -97 callgsubr
          240 callgsubr
          6 -139 -99 88 -238 187 -122 -187 277.00999450683594 -125.00999450683594 124.99000549316406 161 callsubr
          -136 -51 -302.97999572753906 -123 rlineto
          endchar
        </CharString>
        <CharString name="at">
          697 -439.99000549316406 -2 callgsubr
          267.97999572753906 218 callsubr
          -216.97999572753906 192.97999572753906 721.0200042724609 176.99000549316406 278.99998474121094 164 hstemhm
          111.97999572753906 198 229.010009765625 236.99000549316406 411.99998474121094 196 330.010009765625 204 hintmask 1011111110000000
          1205.990005493164 1544.990005493164 rmoveto
          -607.9900054931641 -486.02000427246094 -447 -724 -516.9700012207031 340.00999450683594 -297 467 12 callsubr
          163 46 70 92 hvcurveto
          -46 134 rlineto
          -32 -65 -145 -39 -152 hhcurveto
          -327.99000549316406 -299 3 callsubr
          490.99000549316406 483 324.00999450683594 490 527 297 256 -109 -412 -314 -158 83 callgsubr
          -159 136 callsubr
          -4 216 callgsubr
          17 40 0 145 callgsubr
          11 103.00999450683594 hvcurveto
          47 callsubr
          201 41 324.00999450683594 39.02000427246094 152.99000549316406 -180 -30 rcurveline
          39.02000427246094 121 callsubr
          -109 14.990005493164062 -55 hhcurveto
          -370 -179 -357 -306 -6 hvcurveto
          hintmask 1101111110000000
          -297 -6 164 -135 135 hhcurveto
          199 callsubr
          130 151 213.02000427246094 89.99000549316406 hvcurveto
          hintmask 1011111110000000
          -6 -59 -6 -70 -47 vvcurveto
          -104 -52 callgsubr
          -80 245 callgsubr
          278 347.02000427246094 322.99000549316406 565 393.99000549316406 -273 252 -439 vhcurveto
          hintmask 1101111110000000
          -321.99000549316406 -1317.009994506836 rmoveto
          -13 callsubr
          -22 105 133 194 101 186 callsubr
          192 47 75 -17.020004272460938 188 callgsubr
          107 callsubr
          hvcurveto
          -202.02000427246094 -62 callgsubr
          -196 -436 -116 hhcurveto
          endchar
        </CharString>
        <CharString name="atilde">
          -63 callsubr
          170.010009765625 -56 callsubr
          -56.00001525878906 -56 callsubr
          hstemhm
          80 callsubr
          hintmask 11101000
          591.9900054931641 1472.979995727539 rmoveto
          -1.9900054931640625 56 callsubr
          260 callsubr
          hvcurveto
          136 callgsubr
          239 callsubr
          -38.02000427246094 -3 callsubr
          -64 callgsubr
          hhcurveto
          hintmask 11011000
          -101 73 callgsubr
          -45.02000427246094 hvcurveto
          97.02000427246094 -110 rlineto
          hintmask 11101000
          281 callgsubr
          9 callgsubr
          -52 callsubr
          -1 rrcurveto
          288 callsubr
          -316.99000549316406 -90 callsubr
        </CharString>
        <CharString name="b">
          20 callsubr
          hstem
          856.9799957275391 290 callgsubr
          vstem
          821.9900054931641 1155.990005493164 -65 callsubr
        </CharString>
        <CharString name="backslash">
          -447 -362 1958.990005493164 hstem
          15.990005493164062 798 vstem
          814 -362 rmoveto
          -222 hlineto
          -576 1958.990005493164 rlineto
          221 hlineto
          577 -1958.990005493164 rlineto
          endchar
        </CharString>
        <CharString name="bar">
          116 callsubr
          -1965.990005493164 213 1965.990005493164 -213 vlineto
          endchar
        </CharString>
        <CharString name="braceleft">
          -277 -230.99000549316406 201 callgsubr
          1632.979995727539 184 hstem
          105.97999572753906 918.9900054931641 vstem
          322.99000549316406 563 rmoveto
          0 -88 -604 -1 -29 vhcurveto
          -110 -1 47 -51 136 hhcurveto
          124.00999450683594 104 107 callsubr
          31 92 hvcurveto
          0 112 callsubr
          111 -97 callgsubr
          14.990005493164062 vhcurveto
          -275 hlineto
          93 612 198 callsubr
          51 -19.009994506835938 -4 callsubr
          -30 287 callgsubr
          rlinecurve
          -29 30 8 callsubr
          35 -59 107 callsubr
          rrcurveto
          0 146 55 29 17 vhcurveto
          53 33 88 callsubr
          32 198 callsubr
          54 95 624.9900054931641 rcurveline
          -48 callsubr
          1 216 callgsubr
          20.990005493164062 122 0 vvcurveto
          0 -194.99000549316406 52 -100 244 callgsubr
          -61 -59 -198 188 callsubr
          vhcurveto
          -82 -528 217 callsubr
          -23.020004272460938 -8 callgsubr
          -62 callgsubr
          -35 -19 rlinecurve
          -52 -27 -75 -17 -65 -16 294 callsubr
          -163 rcurveline
          59 -14 63 146 callgsubr
          43 -29 rrcurveto
          88 callsubr
          114 callsubr
          -52 callgsubr
          -29 -22 vvcurveto
          endchar
        </CharString>
        <CharString name="braceright">
          -277 -228 184 1632.979995727539 188 hstem
          47.97999572753906 918.9900054931641 vstem
          750 983 rmoveto
          0 87.99000549316406 604 1 29 vhcurveto
          110 1 -47 51 -135.99000549316406 hhcurveto
          -124 -104 -31 -33 callsubr
          -92 hvcurveto
          0 -14 -111 -98 callgsubr
          -8 callsubr
          vhcurveto
          274.97999572753906 hlineto
          -93 -611.9900054931641 -19 callsubr
          -51.02000427246094 47 callsubr
          -26.990005493164062 30 122 callsubr
          rlinecurve
          29 -30 78 -35 59 -33 callsubr
          rrcurveto
          0 -146 -55 -29 -17 vhcurveto
          -53 -33 -32 -32 -19 callsubr
          -53.99000549316406 -95.00999450683594 -624.9900054931641 rcurveline
          -276 177 callgsubr
          -10.020004272460938 -21.020004272460938 -122 0 vvcurveto
          0 195.02000427246094 -52 100 167 124 callsubr
          59 198 32 vhcurveto
          82 528 4 23 97 callsubr
          145 callgsubr
          35 19 rlinecurve
          52 27 75 17.020004272460938 65 16 24.990005493164062 163 rcurveline
          -59 113 callgsubr
          -63 -52 callgsubr
          60 callgsubr
          29 rrcurveto
          -32 20.990005493164062 -37 callgsubr
          29 216 callsubr
          vvcurveto
          endchar
        </CharString>
        <CharString name="bracketleft">
          -447 -224.99000549316406 181.49000549316406 1634.479995727539 3 callsubr
          hstem
          154.99000549316406 746.9799957275391 vstem
          363.99000549316406 1497.990005493164 rmoveto
          -30 -227 -162 -1038.990005493164 -11 -184.02000427246094 rrcurveto
          -4 -40 -2 -35.97999572753906 -34 vvcurveto
          -110 59 -53 125.99000549316406 134 83 145 callgsubr
          97 callsubr
          91 vhcurveto
          1 113 callgsubr
          13 101.00999450683594 -82 callsubr
          14 89 callgsubr
          184 callgsubr
          rcurveline
          259 callsubr
          1633.990005493164 rlineto
          186 callsubr
          209 callgsubr
          131 rlineto
          0 -181.99000549316406 46.99000549316406 -113 -158 -59 -79 -192 -62 callgsubr
          vhcurveto
          endchar
        </CharString>
        <CharString name="bracketright">
          -447 -212.99000549316406 3 callsubr
          1634.509994506836 181.47000122070312 hstem
          13.979995727539062 747 vstem
          552 58 rmoveto
          29.990005493164062 227 162.02000427246094 1039 11 183.99000549316406 rrcurveto
          100 callsubr
          40 2 36 34 vvcurveto
          110.02000427246094 -59 52.97999572753906 -125.99000549316406 -134 -83 -62 callgsubr
          -8 callgsubr
          162 callsubr
          vhcurveto
          -53 callgsubr
          -59 callgsubr
          -13 221 callsubr
          -2 -59 callgsubr
          186 callsubr
          -1 rcurveline
          -218 -1634 rlineto
          89 callgsubr
          271 callsubr
          13 callsubr
          rlineto
          0 182 -47 -36 callgsubr
          158 59 160 callgsubr
          192 97 callsubr
          vhcurveto
          endchar
        </CharString>
        <CharString name="breve">
          -580 1299.979995727539 194 callgsubr
          1613.990005493164 45 callsubr
          -114 -133 hhcurveto
          -122 -25 48 callgsubr
          144 callgsubr
          73 callsubr
          -3 251 callsubr
          endchar
        </CharString>
        <CharString name="breve.cap">
          -582 1630.979995727539 194 callgsubr
          1944.990005493164 45 callsubr
          -113.99000549316406 -133 hhcurveto
          -122 -25 72 74 73 callsubr
          -3 251 callsubr
          endchar
        </CharString>
        <CharString name="brokenbar">
          116 callsubr
          -879 213 879 -213 vlineto
          -1087.020004272461 vmoveto
          -878.9799957275391 213 878.9799957275391 -213 vlineto
          endchar
        </CharString>
        <CharString name="bullet">
          -443 506.97999572753906 432 hstem
          232.97999572753906 427 vstem
          232.97999572753906 682.9900054931641 rmoveto
          -97 76 -37 callsubr
          100 153 98 140 120.02000427246094 99 -75 -32 callgsubr
          221 callsubr
          182 callsubr
          -109.02000427246094 -136 -119.99000549316406 vhcurveto
          endchar
        </CharString>
        <CharString name="c">
          -14 callsubr
          680 1155.990005493164 -99 callgsubr
        </CharString>
        <CharString name="cacute">
          -14 callsubr
          570.9799957275391 1318.990005493164 rmoveto
          -67 callsubr
          207 callsubr
          rlineto
          109.02000427246094 -163 -99 callgsubr
        </CharString>
        <CharString name="caron">
          -502 1241.979995727539 417.99000549316406 hstem
          108 callsubr
          748.0099945068359 vstem
          108 callsubr
          1582 rmoveto
          227 -340.00999450683594 rlineto
          244 callsubr
          hlineto
          343 341 247 callgsubr
          22 callgsubr
          8 callsubr
          rlineto
          endchar
        </CharString>
        <CharString name="caron.cap">
          -504 258 callsubr
          400.02000427246094 hstem
          52.97999572753906 748.0099945068359 vstem
          52.97999572753906 -38 callgsubr
          178 138 callsubr
          endchar
        </CharString>
        <CharString name="caronvertical">
          -984 1035.979995727539 645.0200042724609 hstem
          236.99000549316406 -2 callsubr
          vstem
          -53 callsubr
          1094.979995727539 rmoveto
          6 -24.990005493164062 124.99000549316406 -34.02000427246094 rlineto
          2 callsubr
          105 9 callgsubr
          187 144.02000427246094 vvcurveto
          87.97999572753906 136 callsubr
          79.00999450683594 294 callsubr
          42 vhcurveto
          -203 -47 -59 callgsubr
          -37 rlineto
          4 callgsubr
          -30 8 -91 -75 vvcurveto
          -111 -19 -117 -22 -35 callsubr
          vhcurveto
          endchar
        </CharString>
        <CharString name="ccaron">
          -14 callsubr
          350.99000549316406 1582 rmoveto
          227 -340.00999450683594 rlineto
          178 hlineto
          343 341 247 callgsubr
          22 callgsubr
          8 callsubr
          rlineto
          185 callsubr
          -426 -99 callgsubr
        </CharString>
        <CharString name="ccedilla">
          -370 -466 194 1215.979995727539 212 274 callsubr
          280.97999572753906 49.00999450683594 162 callgsubr
          hintmask 11100000
          537.9900054931641 186.97999572753906 rmoveto
          -123 -54 83 206 292.97999572753906 152 175 145 75.02000427246094 81.99000549316406 182 callgsubr
          36 70 callsubr
          255 rlineto
          -4 callsubr
          -58 -109.02000427246094 13 49 callsubr
          hhcurveto
          -372 -228 -351 -367 -228.99000549316406 99 -191.02000427246094 289 callgsubr
          -29.979995727539062 hvcurveto
          hintmask 11110000
          2 188 callsubr
          0 258 callgsubr
          -1 -35.99000549316406 76 callsubr
          -17 hvcurveto
          -33 callsubr
          99 callsubr
          rlineto
          114 callgsubr
          23 118.99000549316406 -16 53 hhcurveto
          184.02000427246094 104.97999572753906 87 179 65 -15 80 -19 50 hvcurveto
          142 30.979995727539062 -34 callsubr
          88 43 61.99000549316406 -77 138.02000427246094 rcurveline
          hintmask 11100000
          -72 -71 -92 -55 -86 hhcurveto
          endchar
        </CharString>
        <CharString name="ccircumflex">
          -14 callsubr
          202 callsubr
          238 callgsubr
          271 callgsubr
          49 callsubr
          301 223 -10 callgsubr
          rlineto
          358.00999450683594 99 callgsubr
          -99 callgsubr
        </CharString>
        <CharString name="cdotaccent">
          -370 -95 callgsubr
          202.97999572753906 756.9900054931641 212 197.010009765625 315 hstem
          2 callgsubr
          280.97999572753906 201.02000427246094 327 vstem
          561.9900054931641 102 callsubr
          100 callgsubr
          hhcurveto
          110.97999572753906 15 callgsubr
          118 -339.99000549316406 -99 callgsubr
        </CharString>
        <CharString name="cedilla">
          -819 -468 194 hstem
          237 callsubr
          162 callgsubr
          vstem
          329.99000549316406 34 rmoveto
          -89 -4.0200042724609375 7 -29 1 -65.97999572753906 -2 -57 rlinecurve
          -126 -98 callgsubr
          -75.02000427246094 -8 callgsubr
          -93 hhcurveto
          -33 callsubr
          -27.009994506835938 6 9.009994506835938 -17 hvcurveto
          -30.979995727539062 -177 rlineto
          -16 23 118.97999572753906 114 callgsubr
          53 hhcurveto
          184 104.99000549316406 87 222 callgsubr
          245 callgsubr
          -24.990005493164062 109 -28 37.99000549316406 hvcurveto
          -71 4.0200042724609375 rlineto
          endchar
        </CharString>
        <CharString name="cent">
          -234 -13 -4 callgsubr
          756.989990234375 449 hstemhm
          113.99000549316406 281 285 callsubr
          571.9900054931641 186.97999572753906 rmoveto
          -123 -53.99000549316406 83 206 292.97999572753906 151.97999572753906 175 145.02000427246094 75 82 182 callgsubr
          35.99000549316406 70 callsubr
          255 -42 4 callgsubr
          -70 12 -62 5 rlinecurve
          57 240 rlineto
          -195 hlineto
          -3 callsubr
          -252.99000549316406 rlineto
          -292 -72 -175 -309 -321 vvcurveto
          -205 160 callgsubr
          -173 181 -57 vhcurveto
          -46 -247.99000549316406 rlineto
          195 hlineto
          108 callsubr
          232 171 18.979995727539062 -36 callgsubr
          100 48 70 rlinecurve
          -77 138.02000427246094 rlineto
          -72 295 callsubr
          -92.02000427246094 -55 -86 hhcurveto
          endchar
        </CharString>
        <CharString name="circumflex">
          -502 1213.990005493164 445.99000549316406 hstem
          41.97999572753906 729 vstem
          41.97999572753906 238 callgsubr
          rmoveto
          246 callsubr
          49 callsubr
          301 223 -53 callsubr
          -219 124.00999450683594 68 -201 374 rlineto
          241 callgsubr
          hlineto
          -349 -374 rlineto
          endchar
        </CharString>
        <CharString name="circumflex.cap">
          -502 1588.979995727539 418.02000427246094 hstem
          33.99000549316406 728.9799957275391 vstem
          34 263 callsubr
          300.02000427246094 205 -63 callgsubr
          rlineto
          endchar
        </CharString>
        <CharString name="colon">
          -775 -26 320 488.99000549316406 320 hstemhm
          38.99000549316406 202 callsubr
          -228.97999572753906 202 callsubr
          hintmask 00000000
          hintmask 11010000
          314 224 callsubr
          56 -27 callgsubr
          81 112 73 74 116 69 -38 61 136 callgsubr
          hvcurveto
          hintmask 11100000
          -93 -809 206 callsubr
          112 73 73.99000549316406 116 69 -43 callgsubr
          61 -102 hvcurveto
          endchar
        </CharString>
        <CharString name="colonmonetary">
          89 -95 callgsubr
          245 callsubr
          1159.979995727539 207 hstem
          12 callsubr
          292 vstem
          706.9900054931641 -346 rmoveto
          111 hlineto
          57 340 157 4 callgsubr
          117 52 63 61 rlinecurve
          -64 158 -69 -44 -72 -35 -99 -16 rlinecurve
          189 1134 88 -17 -75 callgsubr
          -28 19 -18 rlinecurve
          70 221 -53 15 -66.99000549316406 22 -89 14 rlinecurve
          47 281.00999450683594 rlineto
          -111 hlineto
          -45 -269 rlineto
          -19 -19 1 -37 callgsubr
          hhcurveto
          -21.020004272460938 114 callsubr
          -1 -1 146 callgsubr
          hvcurveto
          45.02000427246094 270.00999450683594 rlineto
          -112 hlineto
          -48 -287.00999450683594 rlineto
          -363 -82 -254 -334.99000549316406 -466 vvcurveto
          -262 -47 callsubr
          -282.00999450683594 268 -88 vhcurveto
          -60 -357.99000549316406 rlineto
          112 hlineto
          56 334 rlineto
          -2 25 145 callgsubr
          -74 callsubr
          27.009994506835938 hhcurveto
          113 callgsubr
          14 0 1 13 hvcurveto
          -55 -331.02000427246094 rlineto
          240 1684.990005493164 rmoveto
          113 callgsubr
          112 callsubr
          0 -53 callgsubr
          13 hvcurveto
          -193 -1159 rlineto
          -25 hlineto
          -34 -31 100 callsubr
          9.020004272460938 -28 hvcurveto
          183 callsubr
          247 callsubr
          5 97 callsubr
          97 callsubr
          -82 callsubr
          28 hhcurveto
          -484 -677.9900054931641 rmoveto
          6 303 103 289 callgsubr
          176 -47 callsubr
          -173 -1038 rcurveline
          -83 82 -33 145 4 182 rrcurveto
          endchar
        </CharString>
        <CharString name="comma">
          -775 -509.99000549316406 789.9700012207031 hstem
          144.99000549316406 242.99000549316406 vstem
          53.99000549316406 259 callgsubr
          -12 callsubr
        </CharString>
        <CharString name="copyright">
          809 113 callsubr
          129 263.010009765625 184.99000549316406 612.0099945068359 181 259.989990234375 125.99000549316406 hstem
          184.99000549316406 141.99000549316406 283.00999450683594 -2 callsubr
          949.9999847412109 168 callsubr
          -384 -390 -485.99000549316406 -487 384 232 callsubr
          384.99000549316406 393.02000427246094 487 485.99000549316406 -384.99000549316406 267 callgsubr
          -419 -309 337 414 413 309 337 419 419 309 -337 -413 -414 -309 -337 -419 hvcurveto
          51 1241 rmoveto
          -324 -173 -216 -282.00999450683594 1 hvcurveto
          -252.99000549316406 217 callgsubr
          169 -227 276 hhcurveto
          133 122 45 54 63 hvcurveto
          -43.99000549316406 199 callsubr
          rlineto
          -28 -45 -85.02000427246094 -34 -106 hhcurveto
          -152.99000549316406 -108.99000549316406 103 219.02000427246094 217 callgsubr
          hvcurveto
          123 callgsubr
          101.00999450683594 123 164 91 80 -8 callgsubr
          -33 48 vhcurveto
          35 184 rlineto
          216 callsubr
          -43 callgsubr
          -88 34 -120.00999450683594 hhcurveto
          endchar
        </CharString>
        <CharString name="currency">
          239 251.99000549316406 178 520.989990234375 177 hstem
          341.99000549316406 190.99000549316406 497.99998474121094 190.99000549316406 vstem
          1221.979995727539 689.9900054931641 rmoveto
          86 -23.990005493164062 79.00999450683594 -43 -75 callgsubr
          vhcurveto
          200 200 -127.02000427246094 128 -198 -198 rlineto
          47.99000549316406 295 callsubr
          -85.02000427246094 28.020004272460938 -92 hhcurveto
          -87 -82 -25 -44.02000427246094 -68 hvcurveto
          -203 204 -127 -128 200.99000549316406 -200.99000549316406 rlineto
          -47 -70 -26.990005493164062 -84 1 callsubr
          vvcurveto
          -92 28 -85.02000427246094 48 -70 vhcurveto
          -200 8 callgsubr
          128 -127 202 202 rlineto
          -42 -41 callsubr
          80 -24 86 hhcurveto
          89 83 97 callsubr
          45 69 hvcurveto
          202 -202 128 127 -202 202 rlineto
          45 69 145 callgsubr
          82 89 vvcurveto
          -440 -260 rmoveto
          -138 -111 117.99000549316406 142 204 callsubr
          111 118 138 138 111 -118 -142.99000549316406 -142 -111 -117.99000549316406 -138 hvcurveto
          endchar
        </CharString>
        <CharString name="d">
          -83 147 callgsubr
          vstem
          928.9900054931641 115 callgsubr
          rmoveto
          279 callsubr
          -89 callsubr
          215.99000549316406 115 callgsubr
          rlineto
          151 callgsubr
          -451.00999450683594 -1454 -86 callsubr
        </CharString>
        <CharString name="dagger">
          -486 1094.979995727539 182 hstem
          128.97999572753906 751 vstem
          366.97999572753906 975.9900054931641 rmoveto
          -97 -825 rlineto
          167 hlineto
          149 825 11 118.99000549316406 rlineto
          256 hlineto
          -4 callsubr
          182 rlineto
          -273 hlineto
          51 225 callgsubr
          -274.97999572753906 hlineto
          160 callsubr
          -182 rlineto
          259.00999450683594 hlineto
          -21.009994506835938 -118.99000549316406 rlineto
          endchar
        </CharString>
        <CharString name="daggerdbl">
          -486 602.9900054931641 176 315.989990234375 182 hstem
          361.97999572753906 235.49000549316406 vstem
          291.97999572753906 424.97999572753906 rmoveto
          161 callgsubr
          -475.97999572753906 rlineto
          143.99000549316406 hlineto
          109.02000427246094 481.97999572753906 14.990005493164062 172 rlineto
          239 hlineto
          24 176 rlineto
          -241 hlineto
          43 184 11 131.99000549316406 rlineto
          250 hlineto
          -4 callsubr
          182 283 callgsubr
          165 callgsubr
          225 callgsubr
          -260 hlineto
          -8 callgsubr
          -182 rlineto
          243.02000427246094 hlineto
          160 callsubr
          -131.99000549316406 -10 -184 rlineto
          -233 hlineto
          -27 -176 rlineto
          228.99000549316406 hlineto
          -34 -178 rlineto
          endchar
        </CharString>
        <CharString name="dcaron">
          214 147 callgsubr
          983 223 vstem
          1533.990005493164 1665.990005493164 rmoveto
          -203 -47 -14.009994506835938 243 callgsubr
          rlineto
          -52 callgsubr
          -30 7.9900054931640625 162 callsubr
          -75 vvcurveto
          -111 -18.990005493164062 -117 -22.020004272460938 8 callsubr
          vhcurveto
          6 -25 125.00999450683594 -34 rlineto
          66 callsubr
          105 49 187 144 vvcurveto
          88 136 callsubr
          160 callgsubr
          -25 42 vhcurveto
          -672.0099945068359 -519.9900054931641 rmoveto
          -89 callsubr
          215.99000549316406 115 callgsubr
          rlineto
          151 callgsubr
          279 callsubr
          -384 -964.0099945068359 -86 callsubr
        </CharString>
        <CharString name="dcroat">
          -83 -15.990005493164062 27 callsubr
          106.010009765625 143 callgsubr
          hstem
          44 callsubr
          vstem
          1312.990005493164 1391.979995727539 rmoveto
          -146 hlineto
          88 callsubr
          244 rlineto
          151 callgsubr
          161 callgsubr
          -244 rlineto
          -245 hlineto
          114 callgsubr
          99 callgsubr
          rlineto
          243.02000427246094 hlineto
          114 callgsubr
          -116 rlineto
          -89 callsubr
          167 1262 rlineto
          147 hlineto
          16 143 callgsubr
          rlineto
          -835.0099945068359 -1210 -86 callsubr
        </CharString>
        <CharString name="degree">
          -373 934.9900054931641 288 callsubr
          375.00999450683594 153 hstem
          174.97999572753906 172 354 171.99000549316406 vstem
          174.97999572753906 1276.990005493164 rmoveto
          -188 -98 callgsubr
          145 -153.99000549316406 195.02000427246094 hhcurveto
          204.97999572753906 153 146 -53 callsubr
          -88 callsubr
          187 4.0099945068359375 -148 153 -196 hhcurveto
          -204 -151 -147 -193 -3 hvcurveto
          526 hmoveto
          200 callgsubr
          -1 -76 -80.02000427246094 -104 hhcurveto
          -98 -77 85.02000427246094 102.99000549316406 2 hvcurveto
          287 callsubr
          2 75 80 103 hhcurveto
          99 77 -83 -104 -2 hvcurveto
          endchar
        </CharString>
        <CharString name="dieresis">
          -488 239 callgsubr
          82 callgsubr
          -4 callsubr
          303 197 callsubr
          vstem
          -4 callsubr
          109 callsubr
          1.9900054931640625 -27 callgsubr
          50 callsubr
          104.99000549316406 64 81 94 3 hvcurveto
          71 2 121 callsubr
          87 callgsubr
          115 callsubr
          172 callsubr
          endchar
        </CharString>
        <CharString name="dieresis.cap">
          -490 -51 callsubr
          endchar
        </CharString>
        <CharString name="divide">
          67 197.97999572753906 319.02000427246094 157.97000122070312 210.50999450683594 155.510009765625 318.99000549316406 hstemhm
          596.9900054931641 333 286 callgsubr
          596.9900054931641 1178.990005493164 rmoveto
          -83 -4 98 callgsubr
          -27 callgsubr
          83 hhcurveto
          103 86.02000427246094 -32 callgsubr
          109 5 hvcurveto
          144 callgsubr
          4 -40 63 -105 hhcurveto
          84 callgsubr
          -85 -83 -98 -5 hvcurveto
          -337 -293 rmoveto
          -27.009994506835938 -211 rlineto
          915 hlineto
          97 callsubr
          210 -914 1 rlineto
          233 -550 rmoveto
          -83 -4.0099945068359375 59 -55 2 callsubr
          hhcurveto
          104 2 callsubr
          73.00999450683594 109 5 hvcurveto
          74 100 callsubr
          -38.99000549316406 12 callgsubr
          -105 hhcurveto
          -103.00999450683594 -83.99000549316406 -83 -98 -5 hvcurveto
          endchar
        </CharString>
        <CharString name="dollar">
          -97 -253 450 1133.990005493164 429.99000549316406 hstem
          253.99000549316406 263 233 281.97999572753906 vstem
          734.9900054931641 862.9900054931641 rmoveto
          -156 115 -65 60 3 127 rrcurveto
          121 4 109 45.02000427246094 121 hhcurveto
          87 128 122 callsubr
          -27 callgsubr
          54 hvcurveto
          86 215.99000549316406 188 callgsubr
          30 -82 38.02000427246094 -127 12.990005493164062 rlinecurve
          164 callsubr
          219 rlineto
          -211 hlineto
          243 callgsubr
          -224 -234 -39 202 callgsubr
          -153 5 -231 rlinecurve
          4 -209 149 -135 139 -97 rrcurveto
          154.99000549316406 -107 49 -79 -100 vvcurveto
          13 callsubr
          -111 -59 -155.02000427246094 -113.99000549316406 -134 52 45 -50 vhcurveto
          89 callsubr
          -221 37 122 callsubr
          132 -42.97999572753906 136 -59 callgsubr
          rlinecurve
          -41 -238.02000427246094 rlineto
          210 hlineto
          41.99000549316406 242 255.02000427246094 260 callsubr
          163.99000549316406 151 -4 261 rlinecurve
          -4 204 -160 288 callgsubr
          -133 60 callsubr
          rrcurveto
          endchar
        </CharString>
        <CharString name="dong">
          -81 0 201 callgsubr
          131 -4 callgsubr
          545.0099945068359 183.99000549316406 114.99998474121094 159 hstem
          204 callsubr
          264.99000549316406 475.989990234375 249.99000549316406 vstem
          628 1521.990005493164 rmoveto
          -21.009994506835938 -159 296 callgsubr
          -10 -146 rlineto
          112 callsubr
          -29 -52 17 -80.02000427246094 hhcurveto
          -318 -220 -204 -351 -239.99000549316406 151 -134 3 callsubr
          162.02000427246094 82.99000549316406 69 41 44.02000427246094 hvcurveto
          -2 -34 -6 258 callgsubr
          -74 callsubr
          vvcurveto
          -10 -1 -1 -24 18 hhcurveto
          200 hlineto
          133 1043.990005493164 rlineto
          244 callsubr
          209 callgsubr
          159 rlineto
          -177 hlineto
          216 callsubr
          168 rlineto
          -250 hlineto
          -22.020004272460938 -168 rlineto
          -244.99000549316406 hlineto
          88 callsubr
          -458 rmoveto
          97 37 -25 -12 11 hvcurveto
          -57 -449 rlineto
          -19 294 callsubr
          161 callsubr
          -40 -138 hhcurveto
          -80.02000427246094 -47 -41 callsubr
          132 183 callsubr
          66 155.02000427246094 186 hvcurveto
          -600 -876.0099945068359 rmoveto
          -24 -187.99000549316406 rlineto
          994 hlineto
          25 201 callgsubr
          rlineto
          -995 hlineto
          endchar
        </CharString>
        <CharString name="dotaccent">
          -911 1350.979995727539 315 hstem
          107 callsubr
          327 vstem
          107 callsubr
          1494 rmoveto
          190 callsubr
          70.97999572753906 80.02000427246094 60 callsubr
          3.0200042724609375 58 callgsubr
          -64 callgsubr
          -93 -2 hvcurveto
          endchar
        </CharString>
        <CharString name="dotaccent.cap">
          -910 257 callsubr
          82 callgsubr
          -4 callsubr
          186 callgsubr
          vstem
          -4 callsubr
          -30 callsubr
          72 150 callsubr
          -57 63 -97.00999450683594 hhcurveto
          -94.99000549316406 212 callgsubr
          endchar
        </CharString>
        <CharString name="dotlessi">
          -677 0 1139.990005493164 hstem
          48 callsubr
          433 vstem
          257.97999572753906 1140 -92 callsubr
          endchar
        </CharString>
        <CharString name="e">
          -56 callgsubr
          699.9900054931641 1155.990005493164 -105 callgsubr
        </CharString>
        <CharString name="eacute">
          -56 callgsubr
          559.9799957275391 267 callsubr
          120.00999450683594 46.02000427246094 240.99000549316406 226.97999572753906 36 71 callsubr
          207 callsubr
          rlineto
          140 -163 -105 callgsubr
        </CharString>
        <CharString name="ebreve">
          -58 callsubr
          146.010009765625 163 callsubr
          255 callsubr
          11 74 callgsubr
          190.99998474121094 270 hintmask 00000000
          hintmask 11101100
          381.99000549316406 1615.990005493164 rmoveto
          36 callsubr
          226 133 callsubr
          127 callgsubr
          vhcurveto
          -68 callgsubr
          318 -460 rmoveto
          hintmask 11110100
          -355 -260 -310 -408 -5 hvcurveto
          -232 -3 120.02000427246094 84 callsubr
          296 hhcurveto
          227 12 callsubr
          135.97999572753906 82 58 178 callsubr
          141 rlineto
          82 callsubr
          -131.99000549316406 -75 -114.02000427246094 hhcurveto
          -80 callgsubr
          hintmask 11101100
          151 -97.02000427246094 105 -214 vhcurveto
          41 -282.00999450683594 rmoveto
          hintmask 11110100
          -179 -229.99000549316406 -124.99000549316406 -140 -7 vhcurveto
          158 11 92 262.97999572753906 165 hhcurveto
          hintmask 11101100
          64 37.99000549316406 -29 -81 hvcurveto
          endchar
        </CharString>
        <CharString name="ecaron">
          -56 callgsubr
          339.99000549316406 1582 rmoveto
          227 -340.00999450683594 rlineto
          178 hlineto
          343.02000427246094 341 247 callgsubr
          22 callgsubr
          8 callsubr
          rlineto
          360 -426 -105 callgsubr
        </CharString>
        <CharString name="ecircumflex">
          -56 callgsubr
          311.99000549316406 -7 callsubr
          388 99 callgsubr
          -105 callgsubr
        </CharString>
        <CharString name="edieresis">
          -58 callsubr
          207 -24 callsubr
          255 callsubr
          -40 303 106.989990234375 270 -232.989990234375 303 hintmask 00000000
          hintmask 11101010
          331 117 callgsubr
          256 callsubr
          105 63 81 94 3 -6 callgsubr
          -68.00999450683594 -17 callgsubr
          -38 callsubr
          hintmask 11110100
          -78 -350.99000549316406 -105 callgsubr
        </CharString>
        <CharString name="edotaccent">
          -58 callsubr
          197.010009765625 315 255 callsubr
          180 327 -137.010009765625 270 hintmask 00000000
          hintmask 11111000
          550.9900054931641 19 callgsubr
          hintmask 11010100
          149 -339.99000549316406 -105 callgsubr
        </CharString>
        <CharString name="egrave">
          -56 callgsubr
          265.99000549316406 61 callsubr
          434 -420.99000549316406 -105 callgsubr
        </CharString>
        <CharString name="eight">
          29 -18 175.97999572753906 1232.010009765625 169 hstemhm
          124.99000549316406 272.99000549316406 -89.00001525878906 186 callsubr
          291.00001525878906 283.99000549316406 -183.99000549316406 253.99000549316406 hintmask 00000000
          hintmask 11010100
          494 796 rmoveto
          hintmask 11101000
          -192 -71 -178 -148.99000549316406 1 -225.02000427246094 rrcurveto
          -240.99000549316406 222 -128 251 309.97999572753906 241 157 266 174 -125.99000549316406 125.99000549316406 -140 103.02000427246094 vhcurveto
          hintmask 11010100
          12 callsubr
          58.97999572753906 165 142 216 vvcurveto
          243 callsubr
          -182 132.02000427246094 -240.99000549316406 -285 -202.02000427246094 -155 -268 286 callsubr
          82 -103.02000427246094 103.02000427246094 -34 callgsubr
          vhcurveto
          471 407 rmoveto
          -143.02000427246094 -88 -104 -111 -59 vhcurveto
          -110 81 -82 81 110.02000427246094 vvcurveto
          124.99000549316406 160 callgsubr
          -47 callsubr
          124.00999450683594 98 -25 callgsubr
          -65 -122 vhcurveto
          hintmask 11101000
          -330.02000427246094 -1045.020004272461 rmoveto
          13 callsubr
          -106 -47 callsubr
          134 hvcurveto
          2 149 60 callsubr
          107 113 63 rrcurveto
          148 -106 109 -100 -128.99000549316406 vvcurveto
          240 callsubr
          -93 -88 -137 vhcurveto
          endchar
        </CharString>
        <CharString name="ellipsis">
          278 -26 320 hstemhm
          58.97999572753906 324.00999450683594 202.00001525878906 323.99000549316406 202.00999450683594 323.99000549316406 286 callgsubr
          257 callgsubr
          293.99000549316406 rmoveto
          84 callgsubr
          -75 -83.00999450683594 -98 -6 hvcurveto
          -83 -5 54 40 callgsubr
          2 callsubr
          hhcurveto
          104 81 -32 callgsubr
          110.02000427246094 6 hvcurveto
          74 4 -38 63 -107 hhcurveto
          526.0099945068359 hmoveto
          -102.02000427246094 -75 -83.00999450683594 -98 -6 hvcurveto
          -83 -5 54 40 callgsubr
          66 callsubr
          hhcurveto
          104 81 -32 callgsubr
          110.02000427246094 6 hvcurveto
          74 4.0200042724609375 -38 63 -24 callgsubr
          hhcurveto
          525.9900054931641 hmoveto
          136 callgsubr
          -75 -83.00999450683594 -98 -6 hvcurveto
          -83 -5.0200042724609375 54 40 callgsubr
          2 callsubr
          hhcurveto
          104 81 -32 callgsubr
          110.02000427246094 6 hvcurveto
          74 4 -43 callgsubr
          63 -107.00999450683594 hhcurveto
          endchar
        </CharString>
        <CharString name="emacron">
          -58 callsubr
          275 callgsubr
          2 callgsubr
          291 369.989990234375 270 vstem
          413.97999572753906 1595.990005493164 rmoveto
          -11 234 callgsubr
          11 179 rlineto
          -543 hlineto
          286 -440 -105 callgsubr
        </CharString>
        <CharString name="emdash">
          760 70 callgsubr
          257 callsubr
          224 callgsubr
          1621 hlineto
          32.99000549316406 203 rlineto
          -1620.990005493164 hlineto
          endchar
        </CharString>
        <CharString name="endash">
          237 70 callgsubr
          1130.979995727539 224 callgsubr
          1098 hlineto
          33 203 rlineto
          -1098 hlineto
          endchar
        </CharString>
        <CharString name="eng">
          -43 -522.9900054931641 125.99000549316406 1327.9700012207031 225 hstem
          850.9799957275391 38 callgsubr
          292 callgsubr
          131 callgsubr
          -157 -147 -98 -132.02000427246094 236 callgsubr
          16 214.02000427246094 rlineto
          -263 hlineto
          -155 148 callgsubr
          97.02000427246094 709 rlineto
          122 82 13 callgsubr
          99.97999572753906 92 hhcurveto
          60 35 -20 callsubr
          217 callsubr
          -151 -54 -357.99000549316406 60 callgsubr
          -279 rrcurveto
          -246.99000549316406 -37 -62 -183 -174 hhcurveto
          -11.020004272460938 60 callgsubr
          4.0099945068359375 7.9900054931640625 -18 hvcurveto
          -37 -27 callsubr
          rlineto
          -24 22 78 -13 68 hhcurveto
          263 160 13 callgsubr
          392 63 hvcurveto
          45 282.99000549316406 69 466 111 vvcurveto
          216 -34 callgsubr
          80 -160 vhcurveto
          endchar
        </CharString>
        <CharString name="eogonek">
          -219 111 callsubr
          266.0199890136719 197.97999572753906 801.9900054931641 172 255 callsubr
          -56.010009765625 237.00999450683594 188.99000549316406 270 hintmask 11110100
          547.9799957275391 181.99000549316406 rmoveto
          -80 callgsubr
          151 -97.02000427246094 105 -214 -355 -260 -310 -408 -5 vhcurveto
          -232 -3 120.02000427246094 84 callsubr
          296 hhcurveto
          4 callgsubr
          19 1 -82 callsubr
          19 hvcurveto
          hintmask 11101100
          162 callsubr
          -51 -145 -110 -125.00999450683594 141 callgsubr
          130 95 49 60 62 vhcurveto
          -46 83 callsubr
          rlineto
          -42 40 callgsubr
          -40 -13 -46.02000427246094 hhcurveto
          -33 callsubr
          -34 13 56 98 callgsubr
          151 144.02000427246094 99 81.97999572753906 hvcurveto
          69 42 51 9 callgsubr
          27 38 11 callsubr
          141 rcurveline
          hintmask 11110100
          82 callsubr
          -131.99000549316406 -75 -114.02000427246094 54 callgsubr
          endchar
        </CharString>
        <CharString name="equal">
          101 callsubr
          191 1030.979995727539 rmoveto
          -27.020004272460938 -203 rlineto
          827 hlineto
          28 203 rlineto
          -827.9900054931641 hlineto
          -62.02000427246094 -501 rmoveto
          -28 -203 rlineto
          828 hlineto
          27 203 rlineto
          -827 hlineto
          endchar
        </CharString>
        <CharString name="estimated">
          106 -95 callgsubr
          139.97999572753906 498.00001525878906 146 448.00999450683594 139.97999572753906 hstem
          108 callgsubr
          317.99000549316406 556.989990234375 303 vstem
          1287.990005493164 622 rmoveto
          10 51 0 -32 callgsubr
          86.02000427246094 vvcurveto
          -10 186 callgsubr
          -239 200 -295 -5.0200042724609375 rrcurveto
          -428.00999450683594 -6.9900054931640625 -205.99000549316406 -286 -392 vvcurveto
          -430 234.99000549316406 -256.97999572753906 400.02000427246094 168 190 53.97999572753906 124 callsubr
          87 vhcurveto
          40 callgsubr
          132.02000427246094 rlineto
          -44 -69 -148 -63 -157 hhcurveto
          -133 -117 32 245 callgsubr
          -82 hvcurveto
          381.00999450683594 850 vlineto
          -548 594 rmoveto
          118 82 160 callsubr
          -45 133 callgsubr
          hvcurveto
          -374.99000549316406 -556.9900054931641 186 callgsubr
          vlineto
          84 75 105 35 122 hhcurveto
          endchar
        </CharString>
        <CharString name="eth">
          -104 -95 callgsubr
          167.97999572753906 842.9800109863281 162.00999450683594 hstem
          132 callsubr
          292 467 280 vstem
          826 1562.990005493164 rmoveto
          137 288 callsubr
          -108 189 callgsubr
          rlineto
          0 -37 callsubr
          -93 -64 -72 vhcurveto
          -94 64 -113.99000549316406 56 -93 23.990005493164062 -52 -149 rcurveline
          66 callsubr
          -23 79.00999450683594 -48 48 callgsubr
          -58 -139 182 callsubr
          rcurveline
          116 221 callsubr
          128 143 2 callsubr
          -91 54 -98 16 -154 rlinecurve
          56 -40 -87 24 219 callgsubr
          hhcurveto
          -309 -248 -267 -455 -214 136 -236.99000549316406 292 401.99000549316406 209.02000427246094 380.97999572753906 471 267 -83 261 -208 199 hvcurveto
          11 -741 rmoveto
          -1 -47 -16 -144 75 callgsubr
          40 callgsubr
          rrcurveto
          -232 -34 -108 -191.02000427246094 -134 hhcurveto
          -107 -58 288 callgsubr
          144 258.99000549316406 83 313 201 callgsubr
          133 66 -118.99000549316406 -54 -98 callgsubr
          hvcurveto
          endchar
        </CharString>
        <CharString name="exclam">
          -615 -26 320 hstemhm
          -36 callgsubr
          333 -333 551.9900054931641 hintmask 10100000
          369.99000549316406 1777.990005493164 rmoveto
          102 callgsubr
          hintmask 11000000
          -64 -1484 rmoveto
          -23 callsubr
          -43 callgsubr
          63 -106 hhcurveto
          endchar
        </CharString>
        <CharString name="exclamdbl">
          2 -26 320 hstemhm
          -36 callgsubr
          333 -333 1170 -552 333 hintmask 10100000
          369.99000549316406 1777.990005493164 rmoveto
          102 callgsubr
          618 hmoveto
          102 callgsubr
          hintmask 11010000
          -682 -1484 rmoveto
          -23 callsubr
          -43 callgsubr
          63 -106 hhcurveto
          618 hmoveto
          -23 callsubr
          -38 63 200 callsubr
          hhcurveto
          endchar
        </CharString>
        <CharString name="exclamdown">
          -615 1049.979995727539 320 hstemhm
          273.97999572753906 333 hintmask 00000000
          hintmask 11000000
          413.97999572753906 1049.990005493164 rmoveto
          287 callsubr
          80 83 98 6 hvcurveto
          83 5 -59 203 callsubr
          -83.99000549316406 hhcurveto
          -108.00999450683594 -81 11 callsubr
          -110.02000427246094 -6 hvcurveto
          135 callsubr
          -4 38 -63 105.99000549316406 hhcurveto
          -64 -1483.979995727539 rmoveto
          146 1289.9700012207031 rlineto
          -208 hlineto
          -233 -1289.9700012207031 rlineto
          295 hlineto
          endchar
        </CharString>
        <CharString name="f">
          -571 10 callgsubr
          792 -57 callgsubr
          endchar
        </CharString>
        <CharString name="f_f">
          159 10 callgsubr
          1522.009994506836 -57 callgsubr
          730 hmoveto
          -130 -46 callsubr
          24 155 4 callgsubr
          33 callgsubr
          44 -62 callgsubr
          18 -8 callsubr
          246 callgsubr
          199 rcurveline
          22 -51 -60 6 callgsubr
          130 hlineto
          endchar
        </CharString>
        <CharString name="f_f_i">
          783 1 callgsubr
          128.97999572753906 1957 -327 327 hintmask 10110000
          -100 callsubr
          730 hmoveto
          -130 -46 callsubr
          24 155 4 callgsubr
          33 callgsubr
          44 -62 callgsubr
          18 -8 callsubr
          246 callgsubr
          199 rcurveline
          22 -51 -60 6 callgsubr
          130 hlineto
          hintmask 11001000
          769.9900054931641 541.9900054931641 rmoveto
          -71 callgsubr
          78 hhcurveto
          111 70.97999572753906 80 95 3.0200042724609375 58 callgsubr
          86 callgsubr
          -41 269 callsubr
          276.00999450683594 -70 callgsubr
          endchar
        </CharString>
        <CharString name="f_f_l">
          784 10 callgsubr
          1934 -57 callgsubr
          730 hmoveto
          -130 -46 callsubr
          24 155 4 callgsubr
          33 callgsubr
          44 -62 callgsubr
          18 -8 callsubr
          246 callgsubr
          199 rcurveline
          22 -51 -60 6 callgsubr
          130 hlineto
          797 681.9900054931641 rmoveto
          -222 -1634 rlineto
          275.97999572753906 hlineto
          223 1634 302 callgsubr
        </CharString>
        <CharString name="ffi_dflt">
          783 1 callgsubr
          48 callsubr
          2172.990005493164 -1976.000015258789 -57 callsubr
          729.9900054931641 hmoveto
          99 callgsubr
          -46 callsubr
          23.990005493164062 155 20 33 callgsubr
          44 -62 callgsubr
          18 -8 callsubr
          203 callsubr
          199 rcurveline
          22 -51 -3 callsubr
          6 callgsubr
          143 callgsubr
          hlineto
          hintmask 11001000
          -1314 541.9900054931641 -93 callsubr
        </CharString>
        <CharString name="fi">
          53 1 callgsubr
          128.97999572753906 1226.990005493164 -326.97999572753906 145 callsubr
          hintmask 10110000
          -100 callsubr
          hintmask 11001000
          770 541.9900054931641 -29 callsubr
          -41 269 callsubr
          275.97999572753906 hlineto
          157 247 callsubr
          -276.99000549316406 hlineto
          endchar
        </CharString>
        <CharString name="fi_trk">
          53 1 callgsubr
          48 callsubr
          1443 -1246.010009765625 -57 callsubr
          hintmask 11001000
          -584.0099945068359 541.9900054931641 -93 callsubr
        </CharString>
        <CharString name="five">
          -155 -356 -53 callsubr
          561.989990234375 191.00999450683594 327.99000549316406 222 hstem
          692.9799957275391 311 vstem
          148.99000549316406 -160 rmoveto
          -23 -25 2 5 -31 hvcurveto
          -29.990005493164062 -186 rlineto
          -59 callgsubr
          40 57 -3 32.99000549316406 hhcurveto
          475.02000427246094 359 224 356.97999572753906 257 callgsubr
          -139 126.02000427246094 -241 8 callsubr
          -93 -8 callsubr
          -17 -52 hvcurveto
          97 360 rlineto
          507 hlineto
          98 callgsubr
          238 rlineto
          -187.99000549316406 hlineto
          -22 -16 rlineto
          -567.0099945068359 hlineto
          -157 -689 99 -104.99000549316406 rlineto
          29.990005493164062 64 -45 callsubr
          23 72 hhcurveto
          158 124 callsubr
          -81.97999572753906 -134 -250 -297 -96.00999450683594 -246.99000549316406 hvcurveto
          endchar
        </CharString>
        <CharString name="fl">
          54 10 callgsubr
          1203.990005493164 -57 callgsubr
          797 681.9900054931641 rmoveto
          -222 -1634 rlineto
          59 callgsubr
          -2 callsubr
          1634 302 callgsubr
        </CharString>
        <CharString name="florin">
          -242 968.9900054931641 66 callgsubr
          333.00999450683594 66 callgsubr
          hstem
          190.99000549316406 845.9799957275391 vstem
          375.99000549316406 968.9900054931641 rmoveto
          -178 -1324.990005493164 rlineto
          273.02000427246094 hlineto
          2 110 833.9799957275391 -75 callgsubr
          489 vhcurveto
          234 209 callgsubr
          186 rlineto
          -231 hlineto
          22 139 rlineto
          159 97 callsubr
          59 35 91 hhcurveto
          75 1 41 -30 220 callsubr
          -10.020004272460938 164 callsubr
          204 rcurveline
          112 callsubr
          -34 -60.99000549316406 7 -72 hhcurveto
          -218 -198.99000549316406 -164 -272 -38 hvcurveto
          -13 -83 -193.99000549316406 -42 -17 -144 rlineto
          185 hlineto
          endchar
        </CharString>
        <CharString name="four">
          -17 0 185.49000549316406 hstem
          10.990005493164062 1173.990005493164 vstem
          639 1256 rmoveto
          -208.02000427246094 -408 -208 -353.00999450683594 -211.99000549316406 -366 57 -128.97999572753906 rcurveline
          606 hlineto
          -49 -375 rlineto
          259.00999450683594 hlineto
          46.97999572753906 375 rlineto
          225.02000427246094 hlineto
          29 259 callsubr
          -226 144 callsubr
          133 callgsubr
          446 -257.99000549316406 -35 -55 -420 -410.00999450683594 -17 79.02000427246094 105 553 885 -112 89 rlineto
          -171.99000549316406 hlineto
          endchar
        </CharString>
        <CharString name="four.numr">
          -49 callgsubr
        </CharString>
        <CharString name="fraction">
          -275 235 callsubr
          110 889.9900054931641 vstem
          791 1530 194 callsubr
          endchar
        </CharString>
        <CharString name="franc">
          -161 222 callsubr
          173.99000549316406 245.52000427246094 228 434.50999450683594 219.99000549316406 hstem
          -26.990005493164062 1198.979995727539 vstem
          -8 401.97999572753906 rmoveto
          -18.990005493164062 -174 rlineto
          208.97999572753906 hlineto
          -33 callsubr
          -227.97999572753906 rlineto
          285 hlineto
          107 callsubr
          222 callsubr
          rlineto
          286 hlineto
          -52 callgsubr
          174 rlineto
          -283.02000427246094 hlineto
          34 251 452.00999450683594 -11 24.990005493164062 237 -446 -6.9900054931640625 58 441 529 -6 30 223 rlineto
          -814 hlineto
          -153 -1128.020004272461 rlineto
          -212.99000549316406 hlineto
          endchar
        </CharString>
        <CharString name="g">
          -68 callsubr
          hstem
          44 callsubr
          vstem
          986.9900054931641 1117 -105 callsubr
        </CharString>
        <CharString name="gbreve">
          -68 callsubr
          146.010009765625 163 callsubr
          hstem
          44 callsubr
          96.010009765625 74 callgsubr
          vstem
          769.9900054931641 1302 rmoveto
          226 133 callsubr
          127 callgsubr
          hvcurveto
          -68 callgsubr
          36 callsubr
          vhcurveto
          217 -185 -105 callsubr
        </CharString>
        <CharString name="gcaron">
          -68 callsubr
          hstem
          44 callsubr
          vstem
          820.9799957275391 -11 callgsubr
          295 callsubr
          -88 rmoveto
          -94 callgsubr
          161 61 callgsubr
          122.97999572753906 112 -75 callgsubr
          hvcurveto
          -27 callgsubr
          -315.97999572753906 rlineto
          -143.02000427246094 -28 -60 -92 -157 hhcurveto
          -112 -122 49 22 -43 callgsubr
          hvcurveto
          -51 -210 rlineto
          -18 40.97999572753906 136 -22 93 hhcurveto
          240 289 -34 callsubr
          354 51 hvcurveto
          167.02000427246094 1217 -152 -39 rlineto
          47 callsubr
          -63 -97.02000427246094 -52 callgsubr
          -60 callsubr
          hhcurveto
          4 callgsubr
          -670 rmoveto
          -125.00999450683594 -57 -114 -179 -121.02000427246094 hhcurveto
          -93 callgsubr
          41 39.02000427246094 -4 75 callgsubr
          34 hvcurveto
          -66 -480.99000549316406 rlineto
          endchar
        </CharString>
        <CharString name="gcircumflex">
          -68 callsubr
          hstem
          44 callsubr
          vstem
          796 1437 rmoveto
          -53 callsubr
          -219 124.00999450683594 68 -201.02000427246094 125 callsubr
          191 -320 -105 callsubr
        </CharString>
        <CharString name="gcommaaccent">
          -68 callsubr
          hstem
          44 callsubr
          223.010009765625 223.99000549316406 vstem
          730.9900054931641 1242.990005493164 rmoveto
          140 112 7.9900054931640625 74 rlineto
          -40 6 -30 51 48 vvcurveto
          74 33 40 36 25.009994506835938 vhcurveto
          -97 callgsubr
          145 callgsubr
          -90.99000549316406 60 rlineto
          219 callgsubr
          -18 -113.99000549316406 -115 244 callgsubr
          vvcurveto
          221 callsubr
          59 134 callsubr
          87 -19 vhcurveto
          256 -126 -105 callsubr
        </CharString>
        <CharString name="gdotaccent">
          -68 callsubr
          197.010009765625 315 hstem
          44 callsubr
          265.010009765625 327 vstem
          768.9799957275391 254 callsubr
          56 callgsubr
          -77 -37 callsubr
          -93 -38 callsubr
          -64 callgsubr
          204 callgsubr
          67.02000427246094 -64 132 callsubr
          hhcurveto
          218 -236 -105 callsubr
        </CharString>
        <CharString name="germandbls">
          -46 -95 callgsubr
          196.97999572753906 1225.000015258789 181 hstemhm
          673.9900054931641 271.99000549316406 -51.99000549316406 289 callsubr
          -246.99000549316406 264.99000549316406 hintmask 11001000
          192 928.9900054931641 rmoveto
          -121.02000427246094 -927 rlineto
          271.02000427246094 hlineto
          -36 callgsubr
          867 rlineto
          419 53 120.00999450683594 118 144 hhcurveto
          100 53 -61.99000549316406 -75.02000427246094 200 callsubr
          -54 -75 -80 -77 hvcurveto
          hintmask 11100000
          -62 -65 -27 callgsubr
          -62 -95 vvcurveto
          -87 70 -105 53.99000549316406 -70 vhcurveto
          hintmask 11010000
          41 -56 55 -72 -75 vvcurveto
          -107 -61.99000549316406 -35 -124.00999450683594 -1 vhcurveto
          -76 -53 callgsubr
          -88 108 callsubr
          188 callsubr
          34 294 callsubr
          -226 rcurveline
          -23 43.99000549316406 99 -23.979995727539062 118 hhcurveto
          267 157 129.97999572753906 208 135 -66 101 -58.99000549316406 81 hvcurveto
          hintmask 11100000
          -59 80 -42 58 47 vvcurveto
          hintmask 11001000
          145 244 88 callsubr
          289.00999450683594 vvcurveto
          166 callsubr
          -152 103.02000427246094 -211.99000549316406 -239 -313.02000427246094 -58 -600 -81.97999572753906 vhcurveto
          endchar
        </CharString>
        <CharString name="grave">
          -757 278 callgsubr
          18.979995727539062 492.00999450683594 vstem
          18.979995727539062 1574.990005493164 rmoveto
          50.02000427246094 -75 callsubr
          199 callgsubr
          -210.99000549316406 189 callgsubr
          258 callgsubr
          104 2 callsubr
          rcurveline
          240 callgsubr
          426 -181 -169 rlineto
          endchar
        </CharString>
        <CharString name="grave.cap">
          -776 1571.979995727539 435.02000427246094 hstem
          29.979995727539062 444 vstem
          29.979995727539062 41 callgsubr
          endchar
        </CharString>
        <CharString name="greater">
          81 180.97999572753906 1159 hstem
          251.99000549316406 1034.990005493164 vstem
          1270.990005493164 695.9900054931641 rmoveto
          16 129 -898.9900054931641 514.9900054931641 -23 -229.99000549316406 616 -339 -699 -338 -30 -252 1019 515.0099945068359 rlineto
          endchar
        </CharString>
        <CharString name="greaterequal">
          79 3 callsubr
          71 hstem
          151.97999572753906 1066 vstem
          1204.979995727539 291 callsubr
          rmoveto
          -1012 -430 30 237 callsubr
          604 247 -536.9900054931641 257 28 289 callgsubr
          900 -461.99000549316406 -13 -89.00999450683594 rlineto
          200 callsubr
          -679.9900054931641 rmoveto
          -947.0200042724609 hlineto
          19 -2 callgsubr
          rlineto
          946.0099945068359 hlineto
          -18 -178.99000549316406 rlineto
          endchar
        </CharString>
</ttFont>
